<?xml version="1.0" encoding="UTF-8"?>
<!DOCTYPE svg PUBLIC "-//W3C//DTD SVG 1.1//EN" "http://www.w3.org/Graphics/SVG/1.1/DTD/svg11.dtd">
<svg xmlns="http://www.w3.org/2000/svg" version="1.1" width="1024px" height="1024px" style="shape-rendering:geometricPrecision; text-rendering:geometricPrecision; image-rendering:optimizeQuality; fill-rule:evenodd; clip-rule:evenodd" xmlns:xlink="http://www.w3.org/1999/xlink">
<g><path style="opacity:0.004" fill="#7d444c" d="M 635.5,45.5 C 636.833,46.1667 636.833,46.1667 635.5,45.5 Z"/></g>
<g><path style="opacity:0.004" fill="#100506" d="M 871.5,66.5 C 872.833,67.1667 872.833,67.1667 871.5,66.5 Z"/></g>
<g><path style="opacity:0.008" fill="#9f5766" d="M 497.5,68.5 C 498.833,69.1667 498.833,69.1667 497.5,68.5 Z"/></g>
<g><path style="opacity:0.008" fill="#9f5663" d="M 483.5,69.5 C 484.833,70.1667 484.833,70.1667 483.5,69.5 Z"/></g>
<g><path style="opacity:0.008" fill="#9e5663" d="M 491.5,69.5 C 492.833,70.1667 492.833,70.1667 491.5,69.5 Z"/></g>
<g><path style="opacity:0.004" fill="#9b5460" d="M 531.5,69.5 C 532.833,70.1667 532.833,70.1667 531.5,69.5 Z"/></g>
<g><path style="opacity:0.004" fill="#a05866" d="M 539.5,69.5 C 540.833,70.1667 540.833,70.1667 539.5,69.5 Z"/></g>
<g><path style="opacity:0.004" fill="#9b5762" d="M 462.5,71.5 C 463.833,72.1667 463.833,72.1667 462.5,71.5 Z"/></g>
<g><path style="opacity:0.935" fill="#8b4755" d="M 546.5,72.5 C 530.833,72.5 515.167,72.5 499.5,72.5C 499.5,72.1667 499.5,71.8333 499.5,71.5C 515.189,70.2478 530.856,70.5811 546.5,72.5 Z"/></g>
<g><path style="opacity:0.004" fill="#9a5460" d="M 560.5,71.5 C 561.833,72.1667 561.833,72.1667 560.5,71.5 Z"/></g>
<g><path style="opacity:0.018" fill="#975261" d="M 562.5,72.5 C 563.946,71.3871 565.613,71.2204 567.5,72C 565.866,72.4935 564.199,72.6602 562.5,72.5 Z"/></g>
<g><path style="opacity:0.008" fill="#9a5662" d="M 569.5,71.5 C 570.833,72.1667 570.833,72.1667 569.5,71.5 Z"/></g>
<g><path style="opacity:0.008" fill="#9c5462" d="M 584.5,71.5 C 585.833,72.1667 585.833,72.1667 584.5,71.5 Z"/></g>
<g><path style="opacity:0.004" fill="#9a5661" d="M 431.5,72.5 C 432.833,73.1667 432.833,73.1667 431.5,72.5 Z"/></g>
<g><path style="opacity:0.004" fill="#9c5663" d="M 457.5,72.5 C 458.833,73.1667 458.833,73.1667 457.5,72.5 Z"/></g>
<g><path style="opacity:0.949" fill="#8d4857" d="M 499.5,71.5 C 499.5,71.8333 499.5,72.1667 499.5,72.5C 489.822,72.5747 480.156,72.9081 470.5,73.5C 479.95,71.8598 489.616,71.1932 499.5,71.5 Z"/></g>
<g><path style="opacity:0.008" fill="#9b5661" d="M 577.5,72.5 C 578.833,73.1667 578.833,73.1667 577.5,72.5 Z"/></g>
<g><path style="opacity:0.004" fill="#9b5461" d="M 441.5,73.5 C 442.833,74.1667 442.833,74.1667 441.5,73.5 Z"/></g>
<g><path style="opacity:1" fill="#560f18" d="M 499.5,72.5 C 515.167,72.5 530.833,72.5 546.5,72.5C 554.613,72.4058 562.613,73.0725 570.5,74.5C 574.618,75.7089 578.951,76.3755 583.5,76.5C 582.207,77.1582 580.707,77.4915 579,77.5C 540.561,73.2012 502.061,72.3678 463.5,75C 466.036,74.8138 468.369,74.3138 470.5,73.5C 480.156,72.9081 489.822,72.5747 499.5,72.5 Z"/></g>
<g><path style="opacity:0.014" fill="#9c5462" d="M 579.5,74.5 C 579.897,73.475 580.563,73.3083 581.5,74C 580.906,74.4643 580.239,74.631 579.5,74.5 Z"/></g>
<g><path style="opacity:0.012" fill="#9a5360" d="M 583.5,74.5 C 582.833,73.1667 582.833,73.1667 583.5,74.5 Z"/></g>
<g><path style="opacity:0.004" fill="#9d5561" d="M 431.5,74.5 C 432.833,75.1667 432.833,75.1667 431.5,74.5 Z"/></g>
<g><path style="opacity:0.008" fill="#9c5961" d="M 441.5,74.5 C 440.833,75.1667 440.833,75.1667 441.5,74.5 Z"/></g>
<g><path style="opacity:0.051" fill="#ac6978" d="M 459.5,74.5 C 457.735,75.4614 455.735,75.7947 453.5,75.5C 453.908,74.3569 454.575,73.3569 455.5,72.5C 456.696,72.8457 456.696,73.3457 455.5,74C 456.793,74.49 458.127,74.6567 459.5,74.5 Z"/></g>
<g><path style="opacity:0.999" fill="#601324" d="M 470.5,73.5 C 468.369,74.3138 466.036,74.8138 463.5,75C 502.061,72.3678 540.561,73.2012 579,77.5C 580.707,77.4915 582.207,77.1582 583.5,76.5C 584.167,76.5 584.833,76.5 585.5,76.5C 587.265,77.4614 589.265,77.7947 591.5,77.5C 592.263,78.2679 593.263,78.7679 594.5,79C 593.304,79.6543 593.304,80.1543 594.5,80.5C 596.747,79.6258 599.08,79.2924 601.5,79.5C 606.683,79.7135 611.683,80.7135 616.5,82.5C 619.219,83.913 622.219,84.5797 625.5,84.5C 626.568,85.4345 627.901,85.7678 629.5,85.5C 633.584,86.1876 637.584,87.1876 641.5,88.5C 641.842,89.3382 642.508,89.6716 643.5,89.5C 644.5,89.5 645.5,89.5 646.5,89.5C 647.568,90.4345 648.901,90.7678 650.5,90.5C 651.209,91.404 652.209,91.7373 653.5,91.5C 657.866,93.7664 662.533,95.4331 667.5,96.5C 668.93,97.5375 670.597,98.2041 672.5,98.5C 673.209,99.404 674.209,99.7373 675.5,99.5C 679.203,101.679 683.203,103.345 687.5,104.5C 687.842,105.338 688.508,105.672 689.5,105.5C 701.917,111.208 714.251,117.208 726.5,123.5C 730.076,126.442 733.743,128.442 737.5,129.5C 740.894,132.221 744.561,134.554 748.5,136.5C 752.205,139.526 756.205,142.192 760.5,144.5C 764.223,147.551 768.223,150.218 772.5,152.5C 772.833,153.5 773.5,154.167 774.5,154.5C 779.825,158.497 785.158,162.497 790.5,166.5C 791.167,167.833 792.167,168.833 793.5,169.5C 800.142,175.137 806.808,180.804 813.5,186.5C 813.5,187.167 813.833,187.5 814.5,187.5C 816.833,190.5 819.5,193.167 822.5,195.5C 824.5,198.167 826.833,200.5 829.5,202.5C 834.539,207.537 839.206,212.871 843.5,218.5C 843.833,219.5 844.5,220.167 845.5,220.5C 845.833,220.5 846.167,220.5 846.5,220.5C 848.372,223.582 850.705,226.249 853.5,228.5C 854.701,230.909 856.367,232.909 858.5,234.5C 861.016,238.866 864.016,242.866 867.5,246.5C 868.026,248.23 869.026,249.564 870.5,250.5C 871.475,252.795 872.808,254.795 874.5,256.5C 875.058,257.79 876.058,258.623 877.5,259C 877.167,259.333 876.833,259.667 876.5,260C 878.066,262.326 879.732,264.492 881.5,266.5C 882.351,268.882 883.684,270.882 885.5,272.5C 886.669,275.511 888.336,278.178 890.5,280.5C 890.75,282.674 891.75,284.341 893.5,285.5C 898.052,294.937 902.886,304.27 908,313.5C 908.705,311.014 909.538,311.014 910.5,313.5C 909.833,313.5 909.5,313.833 909.5,314.5C 908.167,315.167 908.167,315.833 909.5,316.5C 914.953,328.687 920.12,341.021 925,353.5C 925.383,352.944 925.883,352.611 926.5,352.5C 927.706,353.88 927.373,355.047 925.5,356C 927.131,359.728 928.465,363.561 929.5,367.5C 929.263,368.791 929.596,369.791 930.5,370.5C 931.404,371.209 931.737,372.209 931.5,373.5C 931.263,374.791 931.596,375.791 932.5,376.5C 935.121,383.649 937.121,390.982 938.5,398.5C 938.263,399.791 938.596,400.791 939.5,401.5C 940.024,403.306 940.691,404.972 941.5,406.5C 942.527,413.68 943.86,420.68 945.5,427.5C 945.539,431.733 946.205,435.733 947.5,439.5C 947.194,442.385 947.527,445.052 948.5,447.5C 948.833,452.833 949.167,458.167 949.5,463.5C 948.686,461.369 948.186,459.036 948,456.5C 947.762,465.174 948.095,473.841 949,482.5C 949.499,477.177 949.666,471.844 949.5,466.5C 950.479,469.625 950.813,472.958 950.5,476.5C 950.5,478.833 950.5,481.167 950.5,483.5C 950.038,508.424 948.372,533.424 945.5,558.5C 945.667,559.5 945.833,560.5 946,561.5C 946.21,559.942 946.71,558.609 947.5,557.5C 946.557,568.081 944.89,578.414 942.5,588.5C 941.087,591.219 940.42,594.219 940.5,597.5C 937.588,613.483 933.588,629.149 928.5,644.5C 924.647,652.888 921.314,661.555 918.5,670.5C 905.047,700.754 889.047,729.42 870.5,756.5C 858.863,770.475 847.196,784.475 835.5,798.5C 830.784,804.041 825.784,809.374 820.5,814.5C 809.808,824.195 799.141,833.862 788.5,843.5C 775.981,852.258 763.648,861.258 751.5,870.5C 747.317,872.087 743.65,874.421 740.5,877.5C 736.827,879 733.494,881 730.5,883.5C 726.886,885.307 723.22,887.14 719.5,889C 717.937,889.759 716.937,890.926 716.5,892.5C 714.999,891.557 713.665,891.891 712.5,893.5C 711.508,893.328 710.842,893.662 710.5,894.5C 705.516,896.326 700.849,898.659 696.5,901.5C 692.092,902.524 687.759,904.524 683.5,907.5C 673.536,910.596 663.869,914.262 654.5,918.5C 640.419,922.517 626.419,926.517 612.5,930.5C 605.828,931.502 599.162,932.502 592.5,933.5C 588.267,933.539 584.267,934.205 580.5,935.5C 575.964,936.811 571.297,937.477 566.5,937.5C 568.292,936.691 570.292,936.191 572.5,936C 568,935.833 563.5,935.667 559,935.5C 538.553,937.593 518.053,938.593 497.5,938.5C 484.663,937.046 471.663,935.713 458.5,934.5C 457.167,934.667 455.833,934.833 454.5,935C 456.058,935.21 457.391,935.71 458.5,936.5C 452.057,935.961 445.724,934.961 439.5,933.5C 438.432,932.566 437.099,932.232 435.5,932.5C 435.167,932.5 434.833,932.5 434.5,932.5C 432.162,930.96 429.495,930.294 426.5,930.5C 422.709,930.341 419.042,929.675 415.5,928.5C 413.562,926.837 411.228,926.171 408.5,926.5C 407.167,926.5 405.833,926.5 404.5,926.5C 396.025,923.543 387.359,920.876 378.5,918.5C 367.641,914.486 356.808,910.152 346,905.5C 343.827,908.277 343.327,908.11 344.5,905C 342.35,903.589 340.016,902.755 337.5,902.5C 332.254,899.045 326.587,896.378 320.5,894.5C 317.992,892.076 314.992,890.41 311.5,889.5C 305.366,885.596 299.032,881.929 292.5,878.5C 291.101,877.11 289.434,876.11 287.5,875.5C 274.363,866.759 261.363,857.759 248.5,848.5C 248.167,847.5 247.5,846.833 246.5,846.5C 246.167,845.167 245.833,845.167 245.5,846.5C 244.312,845.316 243.145,845.316 242,846.5C 241.683,844.699 241.016,844.366 240,845.5C 239.833,845.167 239.667,844.833 239.5,844.5C 240.376,843.749 241.376,843.249 242.5,843C 240.905,840.898 238.905,839.398 236.5,838.5C 234.105,835.139 231.105,832.472 227.5,830.5C 224.509,827.88 221.176,824.88 217.5,821.5C 215.187,817.734 212.187,815.568 208.5,815C 205.065,808.354 200.065,802.521 193.5,797.5C 191.628,794.418 189.295,791.751 186.5,789.5C 184.067,785.533 181.4,782.533 178.5,780.5C 176.518,777.19 174.185,774.19 171.5,771.5C 168.882,766.587 165.548,762.254 161.5,758.5C 159.745,755.32 157.745,752.32 155.5,749.5C 154.974,747.77 153.974,746.436 152.5,745.5C 152.573,743.973 151.906,742.973 150.5,742.5C 150.672,741.508 150.338,740.842 149.5,740.5C 149.672,739.508 149.338,738.842 148.5,738.5C 147.974,736.77 146.974,735.436 145.5,734.5C 143.945,731.06 142.112,727.727 140,724.5C 139.667,725.167 139.333,725.833 139,726.5C 138.316,725.216 138.483,724.049 139.5,723C 136.6,718.019 133.6,713.185 130.5,708.5C 130.672,707.508 130.338,706.842 129.5,706.5C 129.672,705.508 129.338,704.842 128.5,704.5C 127.695,702.085 126.695,699.751 125.5,697.5C 125.672,696.508 125.338,695.842 124.5,695.5C 124.068,694.29 123.401,693.29 122.5,692.5C 120.506,688.196 118.506,683.863 116.5,679.5C 116.043,678.702 115.376,678.369 114.5,678.5C 114.804,677.85 115.137,677.183 115.5,676.5C 113.814,673.063 112.147,669.729 110.5,666.5C 110.274,662.408 108.607,659.908 105.5,659C 107.359,658.399 107.692,657.566 106.5,656.5C 104.994,651 102.994,645.333 100.5,639.5C 100.167,635.5 99.8333,635.5 99.5,639.5C 98.5655,638.432 98.2322,637.099 98.5,635.5C 99.0431,635.44 99.3764,635.107 99.5,634.5C 99.0057,632.974 98.339,631.641 97.5,630.5C 95.3422,621.535 93.3422,612.535 91.5,603.5C 92.1524,602.551 92.4857,601.385 92.5,600C 82.3449,551.951 79.1782,503.451 83,454.5C 82.8195,457.695 82.3195,460.695 81.5,463.5C 81.8368,454.806 82.5035,446.139 83.5,437.5C 85.128,431.732 86.128,425.732 86.5,419.5C 87.913,416.781 88.5797,413.781 88.5,410.5C 89.6774,406.125 91.0107,401.792 92.5,397.5C 93.9238,395.485 94.5905,393.152 94.5,390.5C 95.423,384.732 96.7564,379.065 98.5,373.5C 103.391,360.114 108.391,347.114 113.5,334.5C 118.301,322.899 123.634,311.566 129.5,300.5C 132.83,294.508 136.163,288.508 139.5,282.5C 141.924,279.992 143.59,276.992 144.5,273.5C 146.822,272.198 148.155,270.198 148.5,267.5C 150.522,265.469 152.189,263.135 153.5,260.5C 159.188,253.47 164.522,246.137 169.5,238.5C 170.167,238.5 170.5,238.167 170.5,237.5C 170.788,235.513 172.121,233.846 174.5,232.5C 176.471,230.192 178.471,227.858 180.5,225.5C 182.137,223.525 183.804,221.525 185.5,219.5C 188.806,215.527 192.473,211.86 196.5,208.5C 199.243,206.761 201.243,204.427 202.5,201.5C 203.5,200.167 204.5,198.833 205.5,197.5C 207.5,196.167 209.167,194.5 210.5,192.5C 220.687,183.254 231.02,174.254 241.5,165.5C 243.54,163.823 245.54,162.156 247.5,160.5C 251.146,158.183 254.48,155.516 257.5,152.5C 262.68,149.412 267.68,146.078 272.5,142.5C 275.709,140.735 278.709,138.735 281.5,136.5C 282.71,136.068 283.71,135.401 284.5,134.5C 287.833,132.833 291.167,131.167 294.5,129.5C 296.027,129.573 297.027,128.906 297.5,127.5C 304.522,123.464 311.522,119.464 318.5,115.5C 325.168,113.063 331.502,110.063 337.5,106.5C 339.553,106.598 341.22,105.931 342.5,104.5C 346.503,103.832 349.836,102.166 352.5,99.5C 352.833,99.5 353.167,99.5 353.5,99.5C 353.56,100.043 353.893,100.376 354.5,100.5C 357.601,99.1432 360.601,97.8099 363.5,96.5C 372.443,93.6804 381.443,91.0137 390.5,88.5C 393.228,88.8294 395.562,88.1628 397.5,86.5C 397.833,86.5 398.167,86.5 398.5,86.5C 401.228,86.8294 403.562,86.1628 405.5,84.5C 405.833,84.5 406.167,84.5 406.5,84.5C 408.099,84.7678 409.432,84.4345 410.5,83.5C 413.228,83.8294 415.562,83.1628 417.5,81.5C 418.492,81.6716 419.158,81.3382 419.5,80.5C 428.145,79.0378 436.812,77.7044 445.5,76.5C 447.735,76.7947 449.735,76.4614 451.5,75.5C 452.167,75.5 452.833,75.5 453.5,75.5C 455.735,75.7947 457.735,75.4614 459.5,74.5C 463.099,73.6561 466.766,73.3227 470.5,73.5 Z"/></g>
<g><path style="opacity:0.004" fill="#9b525d" d="M 585.5,74.5 C 586.833,75.1667 586.833,75.1667 585.5,74.5 Z"/></g>
<g><path style="opacity:0.016" fill="#9e525f" d="M 587.5,74.5 C 588.833,75.1667 588.833,75.1667 587.5,74.5 Z"/></g>
<g><path style="opacity:0.008" fill="#9b545f" d="M 597.5,74.5 C 598.833,75.1667 598.833,75.1667 597.5,74.5 Z"/></g>
<g><path style="opacity:0.004" fill="#9c5563" d="M 435.5,75.5 C 436.833,76.1667 436.833,76.1667 435.5,75.5 Z"/></g>
<g><path style="opacity:0.004" fill="#9c5462" d="M 438.5,75.5 C 439.833,76.1667 439.833,76.1667 438.5,75.5 Z"/></g>
<g><path style="opacity:0.039" fill="#ac6c79" d="M 451.5,75.5 C 449.735,76.4614 447.735,76.7947 445.5,76.5C 445.281,75.325 445.614,74.325 446.5,73.5C 447.696,73.8457 447.696,74.3457 446.5,75C 448.134,75.4935 449.801,75.6602 451.5,75.5 Z"/></g>
<g><path style="opacity:0.031" fill="#ab6978" d="M 570.5,74.5 C 575.029,74.9658 579.363,74.9658 583.5,74.5C 584.167,74.8333 584.833,75.1667 585.5,75.5C 585.5,75.8333 585.5,76.1667 585.5,76.5C 584.833,76.5 584.167,76.5 583.5,76.5C 578.951,76.3755 574.618,75.7089 570.5,74.5 Z"/></g>
<g><path style="opacity:0.008" fill="#9e545f" d="M 595.5,76.5 C 594.833,75.1667 594.833,75.1667 595.5,76.5 Z"/></g>
<g><path style="opacity:0.122" fill="#a76373" d="M 591.5,77.5 C 589.265,77.7947 587.265,77.4614 585.5,76.5C 587.467,76.7394 589.301,76.4061 591,75.5C 591.464,76.0944 591.631,76.7611 591.5,77.5 Z"/></g>
<g><path style="opacity:0.004" fill="#9b5560" d="M 598.5,76.5 C 599.833,77.1667 599.833,77.1667 598.5,76.5 Z"/></g>
<g><path style="opacity:0.004" fill="#9d525d" d="M 427.5,77.5 C 428.833,78.1667 428.833,78.1667 427.5,77.5 Z"/></g>
<g><path style="opacity:0.004" fill="#9c5460" d="M 603.5,77.5 C 604.833,78.1667 604.833,78.1667 603.5,77.5 Z"/></g>
<g><path style="opacity:0.004" fill="#9b545e" d="M 411.5,80.5 C 410.833,79.1667 410.833,79.1667 411.5,80.5 Z"/></g>
<g><path style="opacity:0.008" fill="#985561" d="M 415.5,80.5 C 415.897,79.475 416.563,79.3083 417.5,80C 416.906,80.4643 416.239,80.631 415.5,80.5 Z"/></g>
<g><path style="opacity:0.02" fill="#924f5e" d="M 419.5,80.5 C 418.833,79.1667 418.833,79.1667 419.5,80.5 Z"/></g>
<g><path style="opacity:1" fill="#843e47" d="M 595.5,76.5 C 596.635,78.0078 598.635,79.0078 601.5,79.5C 599.08,79.2924 596.747,79.6258 594.5,80.5C 593.304,80.1543 593.304,79.6543 594.5,79C 593.263,78.7679 592.263,78.2679 591.5,77.5C 593.099,77.7678 594.432,77.4345 595.5,76.5 Z"/></g>
<g><path style="opacity:0.016" fill="#92505b" d="M 612.5,80.5 C 613.251,79.4265 614.251,79.2599 615.5,80C 614.552,80.4828 613.552,80.6495 612.5,80.5 Z"/></g>
<g><path style="opacity:0.008" fill="#995363" d="M 399.5,80.5 C 400.833,81.1667 400.833,81.1667 399.5,80.5 Z"/></g>
<g><path style="opacity:0.01" fill="#9b5261" d="M 411.5,80.5 C 412.239,80.369 412.906,80.5357 413.5,81C 412.563,81.6917 411.897,81.525 411.5,80.5 Z"/></g>
<g><path style="opacity:0.016" fill="#964e5d" d="M 617.5,81.5 C 617.897,80.475 618.563,80.3083 619.5,81C 618.906,81.4643 618.239,81.631 617.5,81.5 Z"/></g>
<g><path style="opacity:0.008" fill="#974e5f" d="M 620.5,80.5 C 621.833,81.1667 621.833,81.1667 620.5,80.5 Z"/></g>
<g><path style="opacity:0.008" fill="#985060" d="M 623.5,80.5 C 624.833,81.1667 624.833,81.1667 623.5,80.5 Z"/></g>
<g><path style="opacity:0.008" fill="#98505d" d="M 627.5,80.5 C 628.833,81.1667 628.833,81.1667 627.5,80.5 Z"/></g>
<g><path style="opacity:0.02" fill="#9a5562" d="M 410.5,82.5 C 407.833,82.8333 407.833,83.1667 410.5,83.5C 409.432,84.4345 408.099,84.7678 406.5,84.5C 407.598,83.603 407.598,82.7697 406.5,82C 408.066,81.235 409.399,81.4017 410.5,82.5 Z"/></g>
<g><path style="opacity:0.004" fill="#944f5d" d="M 623.5,81.5 C 622.833,82.1667 622.833,82.1667 623.5,81.5 Z"/></g>
<g><path style="opacity:0.004" fill="#9d5863" d="M 399.5,82.5 C 400.833,83.1667 400.833,83.1667 399.5,82.5 Z"/></g>
<g><path style="opacity:0.008" fill="#995462" d="M 401.5,81.5 C 402.525,81.8966 402.692,82.5632 402,83.5C 401.536,82.9056 401.369,82.2389 401.5,81.5 Z"/></g>
<g><path style="opacity:0.012" fill="#9d5364" d="M 403.5,82.5 C 404.833,83.1667 404.833,83.1667 403.5,82.5 Z"/></g>
<g><path style="opacity:0.941" fill="#96515d" d="M 415.5,80.5 C 415.842,81.3382 416.508,81.6716 417.5,81.5C 415.562,83.1628 413.228,83.8294 410.5,83.5C 410.5,83.1667 410.5,82.8333 410.5,82.5C 412.554,82.6347 414.221,81.968 415.5,80.5 Z"/></g>
<g><path style="opacity:0.071" fill="#a4626f" d="M 616.5,82.5 C 619.781,82.4203 622.781,83.087 625.5,84.5C 622.219,84.5797 619.219,83.913 616.5,82.5 Z"/></g>
<g><path style="opacity:0.012" fill="#99525e" d="M 626.5,82.5 C 627.833,83.1667 627.833,83.1667 626.5,82.5 Z"/></g>
<g><path style="opacity:0.059" fill="#ab6a78" d="M 629.5,85.5 C 627.901,85.7678 626.568,85.4345 625.5,84.5C 626.822,84.67 627.989,84.3366 629,83.5C 629.464,84.0944 629.631,84.7611 629.5,85.5 Z"/></g>
<g><path style="opacity:0.98" fill="#8c4654" d="M 405.5,84.5 C 403.562,86.1628 401.228,86.8294 398.5,86.5C 400.599,85.3882 402.933,84.7215 405.5,84.5 Z"/></g>
<g><path style="opacity:0.004" fill="#96515f" d="M 377.5,87.5 C 378.833,88.1667 378.833,88.1667 377.5,87.5 Z"/></g>
<g><path style="opacity:0.006" fill="#975362" d="M 383.5,88.5 C 383.897,87.475 384.563,87.3083 385.5,88C 384.906,88.4643 384.239,88.631 383.5,88.5 Z"/></g>
<g><path style="opacity:0.976" fill="#92505d" d="M 397.5,86.5 C 395.562,88.1628 393.228,88.8294 390.5,88.5C 392.599,87.3882 394.933,86.7215 397.5,86.5 Z"/></g>
<g><path style="opacity:0.004" fill="#944f5b" d="M 652.5,87.5 C 653.833,88.1667 653.833,88.1667 652.5,87.5 Z"/></g>
<g><path style="opacity:0.016" fill="#934e5a" d="M 654.5,87.5 C 655.833,88.1667 655.833,88.1667 654.5,87.5 Z"/></g>
<g><path style="opacity:0.004" fill="#974d5d" d="M 658.5,87.5 C 659.833,88.1667 659.833,88.1667 658.5,87.5 Z"/></g>
<g><path style="opacity:0.004" fill="#99535e" d="M 377.5,88.5 C 376.833,89.1667 376.833,89.1667 377.5,88.5 Z"/></g>
<g><path style="opacity:0.059" fill="#a96876" d="M 643.5,89.5 C 642.508,89.6716 641.842,89.3382 641.5,88.5C 642.738,87.5876 644.072,87.4209 645.5,88C 644.584,88.2784 643.918,88.7784 643.5,89.5 Z"/></g>
<g><path style="opacity:0.004" fill="#904b57" d="M 646.5,89.5 C 646.369,88.7611 646.536,88.0944 647,87.5C 647.692,88.4368 647.525,89.1034 646.5,89.5 Z"/></g>
<g><path style="opacity:0.004" fill="#96515f" d="M 650.5,90.5 C 650.897,89.475 651.563,89.3083 652.5,90C 651.906,90.4643 651.239,90.631 650.5,90.5 Z"/></g>
<g><path style="opacity:0.012" fill="#97525d" d="M 367.5,90.5 C 368.833,91.1667 368.833,91.1667 367.5,90.5 Z"/></g>
<g><path style="opacity:0.008" fill="#954c5b" d="M 653.5,90.5 C 654.833,91.1667 654.833,91.1667 653.5,90.5 Z"/></g>
<g><path style="opacity:0.008" fill="#99525c" d="M 655.5,90.5 C 656.833,91.1667 656.833,91.1667 655.5,90.5 Z"/></g>
<g><path style="opacity:0.016" fill="#8f4b55" d="M 363.5,96.5 C 362.833,95.1667 362.833,95.1667 363.5,96.5 Z"/></g>
<g><path style="opacity:0.004" fill="#8e4959" d="M 667.5,95.5 C 668.833,96.1667 668.833,96.1667 667.5,95.5 Z"/></g>
<g><path style="opacity:0.004" fill="#904a5a" d="M 669.5,95.5 C 670.833,96.1667 670.833,96.1667 669.5,95.5 Z"/></g>
<g><path style="opacity:0.008" fill="#95525d" d="M 675.5,95.5 C 676.833,96.1667 676.833,96.1667 675.5,95.5 Z"/></g>
<g><path style="opacity:0.004" fill="#96545c" d="M 353.5,96.5 C 354.833,97.1667 354.833,97.1667 353.5,96.5 Z"/></g>
<g><path style="opacity:0.024" fill="#944f5d" d="M 358.5,95.5 C 359.525,95.8966 359.692,96.5632 359,97.5C 358.536,96.9056 358.369,96.2389 358.5,95.5 Z"/></g>
<g><path style="opacity:0.024" fill="#904d57" d="M 672.5,97.5 C 673.833,98.1667 673.833,98.1667 672.5,97.5 Z"/></g>
<g><path style="opacity:0.016" fill="#975160" d="M 352.5,99.5 C 351.475,99.1034 351.308,98.4368 352,97.5C 352.464,98.0944 352.631,98.7611 352.5,99.5 Z"/></g>
<g><path style="opacity:0.012" fill="#94505b" d="M 353.5,98.5 C 354.833,99.1667 354.833,99.1667 353.5,98.5 Z"/></g>
<g><path style="opacity:0.01" fill="#944c59" d="M 675.5,99.5 C 676.786,97.6325 678.119,97.4658 679.5,99C 678.207,99.49 676.873,99.6567 675.5,99.5 Z"/></g>
<g><path style="opacity:0.004" fill="#97515c" d="M 333.5,104.5 C 333.897,103.475 334.563,103.308 335.5,104C 334.906,104.464 334.239,104.631 333.5,104.5 Z"/></g>
<g><path style="opacity:0.004" fill="#904a58" d="M 342.5,104.5 C 341.761,104.631 341.094,104.464 340.5,104C 341.437,103.308 342.103,103.475 342.5,104.5 Z"/></g>
<g><path style="opacity:0.004" fill="#8e4a55" d="M 687.5,103.5 C 688.833,104.167 688.833,104.167 687.5,103.5 Z"/></g>
<g><path style="opacity:0.02" fill="#934b56" d="M 689.5,104.5 C 690.833,105.167 690.833,105.167 689.5,104.5 Z"/></g>
<g><path style="opacity:0.004" fill="#944d59" d="M 702.5,104.5 C 703.833,105.167 703.833,105.167 702.5,104.5 Z"/></g>
<g><path style="opacity:0.016" fill="#8c4c57" d="M 337.5,106.5 C 336.833,105.167 336.833,105.167 337.5,106.5 Z"/></g>
<g><path style="opacity:0.008" fill="#974f5a" d="M 695.5,106.5 C 696.833,107.167 696.833,107.167 695.5,106.5 Z"/></g>
<g><path style="opacity:0.004" fill="#964f5a" d="M 697.5,106.5 C 698.833,107.167 698.833,107.167 697.5,106.5 Z"/></g>
<g><path style="opacity:0.008" fill="#984d5d" d="M 329.5,108.5 C 330.833,109.167 330.833,109.167 329.5,108.5 Z"/></g>
<g><path style="opacity:0.006" fill="#944b5a" d="M 710.5,111.5 C 711.525,111.897 711.692,112.563 711,113.5C 710.536,112.906 710.369,112.239 710.5,111.5 Z"/></g>
<g><path style="opacity:0.009" fill="#944e59" d="M 311.5,113.5 C 312.239,113.369 312.906,113.536 313.5,114C 312.167,114.667 312.167,115.333 313.5,116C 311.939,116.188 311.272,115.355 311.5,113.5 Z"/></g>
<g><path style="opacity:0.016" fill="#96525b" d="M 318.5,114.5 C 318.369,113.761 318.536,113.094 319,112.5C 319.692,113.437 319.525,114.103 318.5,114.5 Z"/></g>
<g><path style="opacity:0.004" fill="#914e57" d="M 718.5,113.5 C 719.833,114.167 719.833,114.167 718.5,113.5 Z"/></g>
<g><path style="opacity:0.008" fill="#91515b" d="M 318.5,114.5 C 318.5,114.833 318.5,115.167 318.5,115.5C 317.83,115.019 317.83,114.685 318.5,114.5 Z"/></g>
<g><path style="opacity:0.012" fill="#97505c" d="M 718.5,117.5 C 719.833,118.167 719.833,118.167 718.5,117.5 Z"/></g>
<g><path style="opacity:0.008" fill="#954d58" d="M 300.5,120.5 C 300.897,119.475 301.563,119.308 302.5,120C 301.906,120.464 301.239,120.631 300.5,120.5 Z"/></g>
<g><path style="opacity:0.012" fill="#914b57" d="M 725.5,119.5 C 726.833,120.167 726.833,120.167 725.5,119.5 Z"/></g>
<g><path style="opacity:0.008" fill="#8f4d59" d="M 295.5,120.5 C 296.833,121.167 296.833,121.167 295.5,120.5 Z"/></g>
<g><path style="opacity:0.008" fill="#8f4d57" d="M 297.5,120.5 C 298.833,121.167 298.833,121.167 297.5,120.5 Z"/></g>
<g><path style="opacity:0.02" fill="#934d57" d="M 723.5,120.5 C 724.833,121.167 724.833,121.167 723.5,120.5 Z"/></g>
<g><path style="opacity:0.004" fill="#944b5b" d="M 731.5,121.5 C 732.833,122.167 732.833,122.167 731.5,121.5 Z"/></g>
<g><path style="opacity:0.008" fill="#954a57" d="M 296.5,122.5 C 297.833,123.167 297.833,123.167 296.5,122.5 Z"/></g>
<g><path style="opacity:0.008" fill="#8f4c59" d="M 726.5,122.5 C 727.833,123.167 727.833,123.167 726.5,122.5 Z"/></g>
<g><path style="opacity:0.004" fill="#954d5a" d="M 296.5,124.5 C 297.833,125.167 297.833,125.167 296.5,124.5 Z"/></g>
<g><path style="opacity:0.004" fill="#2c1615" d="M 875.5,125.5 C 876.833,126.167 876.833,126.167 875.5,125.5 Z"/></g>
<g><path style="opacity:0.902" fill="#935363" d="M 297.5,127.5 C 297.027,128.906 296.027,129.573 294.5,129.5C 294.973,128.094 295.973,127.427 297.5,127.5 Z"/></g>
<g><path style="opacity:0.012" fill="#954e57" d="M 737.5,128.5 C 738.833,129.167 738.833,129.167 737.5,128.5 Z"/></g>
<g><path style="opacity:0.004" fill="#914d59" d="M 289.5,129.5 C 290.833,130.167 290.833,130.167 289.5,129.5 Z"/></g>
<g><path style="opacity:0.004" fill="#914c5c" d="M 740.5,129.5 C 741.833,130.167 741.833,130.167 740.5,129.5 Z"/></g>
<g><path style="opacity:0.008" fill="#955059" d="M 284.5,134.5 C 283.833,133.167 283.833,133.167 284.5,134.5 Z"/></g>
<g><path style="opacity:0.004" fill="#000100" d="M 6.5,135.5 C 7.83333,136.167 7.83333,136.167 6.5,135.5 Z"/></g>
<g><path style="opacity:0.008" fill="#93525d" d="M 278.5,135.5 C 279.833,136.167 279.833,136.167 278.5,135.5 Z"/></g>
<g><path style="opacity:0.004" fill="#91525d" d="M 281.5,136.5 C 280.833,135.167 280.833,135.167 281.5,136.5 Z"/></g>
<g><path style="opacity:0.006" fill="#8e4958" d="M 748.5,136.5 C 749.251,135.427 750.251,135.26 751.5,136C 750.552,136.483 749.552,136.649 748.5,136.5 Z"/></g>
<g><path style="opacity:0.004" fill="#924c58" d="M 755.5,135.5 C 756.833,136.167 756.833,136.167 755.5,135.5 Z"/></g>
<g><path style="opacity:0.012" fill="#904e57" d="M 271.5,136.5 C 272.833,137.167 272.833,137.167 271.5,136.5 Z"/></g>
<g><path style="opacity:0.012" fill="#97515c" d="M 276.5,137.5 C 277.833,138.167 277.833,138.167 276.5,137.5 Z"/></g>
<g><path style="opacity:0.008" fill="#904a56" d="M 758.5,137.5 C 759.833,138.167 759.833,138.167 758.5,137.5 Z"/></g>
<g><path style="opacity:0.008" fill="#8f5059" d="M 274.5,138.5 C 275.833,139.167 275.833,139.167 274.5,138.5 Z"/></g>
<g><path style="opacity:0.012" fill="#91505c" d="M 271.5,138.5 C 272.525,138.897 272.692,139.563 272,140.5C 271.536,139.906 271.369,139.239 271.5,138.5 Z"/></g>
<g><path style="opacity:0.004" fill="#944d59" d="M 756.5,139.5 C 757.833,140.167 757.833,140.167 756.5,139.5 Z"/></g>
<g><path style="opacity:0.012" fill="#8f4f56" d="M 272.5,142.5 C 271.833,141.167 271.833,141.167 272.5,142.5 Z"/></g>
<g><path style="opacity:0.004" fill="#8e4353" d="M 760.5,143.5 C 761.833,144.167 761.833,144.167 760.5,143.5 Z"/></g>
<g><path style="opacity:0.004" fill="#924758" d="M 765.5,143.5 C 767.975,143.747 767.975,144.413 765.5,145.5C 764.537,145.03 764.537,144.363 765.5,143.5 Z"/></g>
<g><path style="opacity:0.008" fill="#934f58" d="M 262.5,145.5 C 263.833,146.167 263.833,146.167 262.5,145.5 Z"/></g>
<g><path style="opacity:0.008" fill="#8e4d59" d="M 264.5,145.5 C 265.833,146.167 265.833,146.167 264.5,145.5 Z"/></g>
<g><path style="opacity:0.004" fill="#8c4754" d="M 766.5,146.5 C 767.833,147.167 767.833,147.167 766.5,146.5 Z"/></g>
<g><path style="opacity:0.004" fill="#8c4958" d="M 257.5,152.5 C 256.761,152.631 256.094,152.464 255.5,152C 256.437,151.308 257.103,151.475 257.5,152.5 Z"/></g>
<g><path style="opacity:0.004" fill="#8f4c55" d="M 772.5,151.5 C 773.833,152.167 773.833,152.167 772.5,151.5 Z"/></g>
<g><path style="opacity:0.004" fill="#8d4a55" d="M 782.5,151.5 C 783.833,152.167 783.833,152.167 782.5,151.5 Z"/></g>
<g><path style="opacity:0.004" fill="#924c56" d="M 249.5,152.5 C 250.833,153.167 250.833,153.167 249.5,152.5 Z"/></g>
<g><path style="opacity:0.004" fill="#8e5058" d="M 774.5,153.5 C 775.833,154.167 775.833,154.167 774.5,153.5 Z"/></g>
<g><path style="opacity:0.02" fill="#904d57" d="M 239.5,159.5 C 240.833,160.167 240.833,160.167 239.5,159.5 Z"/></g>
<g><path style="opacity:0.039" fill="#924e5a" d="M 245.5,160.5 C 246.167,159.167 246.833,159.167 247.5,160.5C 246.833,160.5 246.167,160.5 245.5,160.5 Z"/></g>
<g><path style="opacity:0.012" fill="#8f4c57" d="M 788.5,159.5 C 789.833,160.167 789.833,160.167 788.5,159.5 Z"/></g>
<g><path style="opacity:0.008" fill="#904d59" d="M 241.5,160.5 C 242.833,161.167 242.833,161.167 241.5,160.5 Z"/></g>
<g><path style="opacity:0.004" fill="#944f59" d="M 245.5,160.5 C 244.833,161.167 244.833,161.167 245.5,160.5 Z"/></g>
<g><path style="opacity:0.012" fill="#914f5a" d="M 786.5,160.5 C 787.833,161.167 787.833,161.167 786.5,160.5 Z"/></g>
<g><path style="opacity:0.004" fill="#904957" d="M 790.5,159.5 C 791.776,160.386 791.776,161.386 790.5,162.5C 789.913,161.767 789.913,160.767 790.5,159.5 Z"/></g>
<g><path style="opacity:0.012" fill="#914d59" d="M 239.5,161.5 C 240.525,161.897 240.692,162.563 240,163.5C 239.536,162.906 239.369,162.239 239.5,161.5 Z"/></g>
<g><path style="opacity:0.004" fill="#95505f" d="M 241.5,165.5 C 240.833,164.167 240.833,164.167 241.5,165.5 Z"/></g>
<g><path style="opacity:0.012" fill="#8e4d58" d="M 790.5,165.5 C 791.833,166.167 791.833,166.167 790.5,165.5 Z"/></g>
<g><path style="opacity:0.012" fill="#8d4a58" d="M 232.5,168.5 C 231.833,167.167 231.833,167.167 232.5,168.5 Z"/></g>
<g><path style="opacity:0.012" fill="#8a4a56" d="M 234.5,167.5 C 235.833,168.167 235.833,168.167 234.5,167.5 Z"/></g>
<g><path style="opacity:0.02" fill="#8e4a57" d="M 232.5,168.5 C 233.833,169.167 233.833,169.167 232.5,168.5 Z"/></g>
<g><path style="opacity:0.012" fill="#894650" d="M 793.5,168.5 C 794.833,169.167 794.833,169.167 793.5,168.5 Z"/></g>
<g><path style="opacity:0.012" fill="#8f4758" d="M 796.5,169.5 C 796.897,168.475 797.563,168.308 798.5,169C 797.906,169.464 797.239,169.631 796.5,169.5 Z"/></g>
<g><path style="opacity:0.008" fill="#8f505a" d="M 232.5,169.5 C 232.631,170.239 232.464,170.906 232,171.5C 231.308,170.563 231.475,169.897 232.5,169.5 Z"/></g>
<g><path style="opacity:0.008" fill="#924b5c" d="M 226.5,175.5 C 227.833,176.167 227.833,176.167 226.5,175.5 Z"/></g>
<g><path style="opacity:0.008" fill="#8e4655" d="M 806.5,175.5 C 807.833,176.167 807.833,176.167 806.5,175.5 Z"/></g>
<g><path style="opacity:0.012" fill="#8b4455" d="M 806.5,176.5 C 805.833,177.167 805.833,177.167 806.5,176.5 Z"/></g>
<g><path style="opacity:0.008" fill="#95515c" d="M 219.5,181.5 C 220.833,182.167 220.833,182.167 219.5,181.5 Z"/></g>
<g><path style="opacity:0.004" fill="#924b57" d="M 212.5,184.5 C 213.833,185.167 213.833,185.167 212.5,184.5 Z"/></g>
<g><path style="opacity:0.008" fill="#8f4a57" d="M 813.5,186.5 C 813.56,185.957 813.893,185.624 814.5,185.5C 815.773,186.257 815.773,186.923 814.5,187.5C 813.833,187.5 813.5,187.167 813.5,186.5 Z"/></g>
<g><path style="opacity:0.004" fill="#8d4e59" d="M 210.5,192.5 C 209.833,191.167 209.833,191.167 210.5,192.5 Z"/></g>
<g><path style="opacity:0.004" fill="#8b4654" d="M 820.5,191.5 C 821.833,192.167 821.833,192.167 820.5,191.5 Z"/></g>
<g><path style="opacity:0.004" fill="#8b4851" d="M 827.5,191.5 C 828.833,192.167 828.833,192.167 827.5,191.5 Z"/></g>
<g><path style="opacity:0.016" fill="#8b4754" d="M 822.5,195.5 C 822.369,194.761 822.536,194.094 823,193.5C 823.692,194.437 823.525,195.103 822.5,195.5 Z"/></g>
<g><path style="opacity:0.004" fill="#94515d" d="M 205.5,197.5 C 204.833,196.167 204.833,196.167 205.5,197.5 Z"/></g>
<g><path style="opacity:0.008" fill="#894551" d="M 828.5,199.5 C 829.833,200.167 829.833,200.167 828.5,199.5 Z"/></g>
<g><path style="opacity:0.004" fill="#8e4a5a" d="M 199.5,199.5 C 200.525,199.897 200.692,200.563 200,201.5C 199.536,200.906 199.369,200.239 199.5,199.5 Z"/></g>
<g><path style="opacity:0.006" fill="#8e4753" d="M 829.5,202.5 C 829.783,201.711 830.283,201.044 831,200.5C 831.528,201.816 831.028,202.483 829.5,202.5 Z"/></g>
<g><path style="opacity:0.718" fill="#8f4c5a" d="M 202.5,201.5 C 201.243,204.427 199.243,206.761 196.5,208.5C 197.757,205.573 199.757,203.239 202.5,201.5 Z"/></g>
<g><path style="opacity:0.016" fill="#8e4555" d="M 836.5,207.5 C 837.833,208.167 837.833,208.167 836.5,207.5 Z"/></g>
<g><path style="opacity:0.02" fill="#914d5b" d="M 186.5,215.5 C 187.833,216.167 187.833,216.167 186.5,215.5 Z"/></g>
<g><path style="opacity:0.004" fill="#8c4754" d="M 844.5,215.5 C 845.833,216.167 845.833,216.167 844.5,215.5 Z"/></g>
<g><path style="opacity:0.016" fill="#8d4d58" d="M 185.5,219.5 C 184.833,218.167 184.833,218.167 185.5,219.5 Z"/></g>
<g><path style="opacity:0.024" fill="#945261" d="M 843.5,218.5 C 844.791,218.263 845.791,218.596 846.5,219.5C 845.833,219.5 845.5,219.833 845.5,220.5C 844.5,220.167 843.833,219.5 843.5,218.5 Z"/></g>
<g><path style="opacity:0.004" fill="#8a4954" d="M 846.5,219.5 C 847.833,220.167 847.833,220.167 846.5,219.5 Z"/></g>
<g><path style="opacity:0.016" fill="#904a55" d="M 852.5,223.5 C 853.833,224.167 853.833,224.167 852.5,223.5 Z"/></g>
<g><path style="opacity:0.012" fill="#8f4d5b" d="M 175.5,224.5 C 176.833,225.167 176.833,225.167 175.5,224.5 Z"/></g>
<g><path style="opacity:0.008" fill="#945258" d="M 180.5,225.5 C 179.475,225.103 179.308,224.437 180,223.5C 180.464,224.094 180.631,224.761 180.5,225.5 Z"/></g>
<g><path style="opacity:0.004" fill="#8c4852" d="M 854.5,224.5 C 855.833,225.167 855.833,225.167 854.5,224.5 Z"/></g>
<g><path style="opacity:0.008" fill="#8c4654" d="M 853.5,228.5 C 853.517,226.972 854.184,226.472 855.5,227C 854.956,227.717 854.289,228.217 853.5,228.5 Z"/></g>
<g><path style="opacity:0.004" fill="#914a57" d="M 171.5,231.5 C 172.833,232.167 172.833,232.167 171.5,231.5 Z"/></g>
<g><path style="opacity:0.012" fill="#99555e" d="M 174.5,232.5 C 173.833,231.167 173.833,231.167 174.5,232.5 Z"/></g>
<g><path style="opacity:0.008" fill="#944b59" d="M 169.5,232.5 C 170.833,233.167 170.833,233.167 169.5,232.5 Z"/></g>
<g><path style="opacity:0.004" fill="#924753" d="M 859.5,234.5 C 858.833,233.167 858.833,233.167 859.5,234.5 Z"/></g>
<g><path style="opacity:0.004" fill="#904c55" d="M 167.5,234.5 C 168.833,235.167 168.833,235.167 167.5,234.5 Z"/></g>
<g><path style="opacity:0.004" fill="#934b57" d="M 859.5,234.5 C 860.833,235.167 860.833,235.167 859.5,234.5 Z"/></g>
<g><path style="opacity:0.008" fill="#934f5a" d="M 170.5,237.5 C 169.833,237.5 169.5,237.833 169.5,238.5C 167.025,238.253 167.025,237.587 169.5,236.5C 170.107,236.624 170.44,236.957 170.5,237.5 Z"/></g>
<g><path style="opacity:0.004" fill="#914d5b" d="M 164.5,240.5 C 165.833,241.167 165.833,241.167 164.5,240.5 Z"/></g>
<g><path style="opacity:0.008" fill="#914a57" d="M 159.5,241.5 C 160.833,242.167 160.833,242.167 159.5,241.5 Z"/></g>
<g><path style="opacity:0.008" fill="#914e58" d="M 160.5,244.5 C 161.833,245.167 161.833,245.167 160.5,244.5 Z"/></g>
<g><path style="opacity:0.008" fill="#8e4854" d="M 867.5,246.5 C 867.369,245.761 867.536,245.094 868,244.5C 868.692,245.437 868.525,246.103 867.5,246.5 Z"/></g>
<g><path style="opacity:0.016" fill="#8f4d58" d="M 870.5,249.5 C 871.833,250.167 871.833,250.167 870.5,249.5 Z"/></g>
<g><path style="opacity:0.004" fill="#8f4c57" d="M 151.5,250.5 C 152.833,251.167 152.833,251.167 151.5,250.5 Z"/></g>
<g><path style="opacity:0.004" fill="#8c4a55" d="M 878.5,252.5 C 879.833,253.167 879.833,253.167 878.5,252.5 Z"/></g>
<g><path style="opacity:0.004" fill="#8e4c54" d="M 876.5,254.5 C 875.833,253.167 875.833,253.167 876.5,254.5 Z"/></g>
<g><path style="opacity:0.004" fill="#904956" d="M 876.5,254.5 C 877.833,255.167 877.833,255.167 876.5,254.5 Z"/></g>
<g><path style="opacity:0.008" fill="#8b4957" d="M 874.5,255.5 C 875.833,256.167 875.833,256.167 874.5,255.5 Z"/></g>
<g><path style="opacity:0.012" fill="#8f4c59" d="M 153.5,260.5 C 152.833,259.167 152.833,259.167 153.5,260.5 Z"/></g>
<g><path style="opacity:0.004" fill="#96505d" d="M 146.5,264.5 C 146.897,263.475 147.563,263.308 148.5,264C 147.906,264.464 147.239,264.631 146.5,264.5 Z"/></g>
<g><path style="opacity:0.004" fill="#8f4c57" d="M 881.5,264.5 C 880.833,263.167 880.833,263.167 881.5,264.5 Z"/></g>
<g><path style="opacity:0.008" fill="#944f5c" d="M 144.5,266.5 C 144.897,265.475 145.563,265.308 146.5,266C 145.906,266.464 145.239,266.631 144.5,266.5 Z"/></g>
<g><path style="opacity:0.004" fill="#94505a" d="M 148.5,267.5 C 147.475,267.103 147.308,266.437 148,265.5C 148.464,266.094 148.631,266.761 148.5,267.5 Z"/></g>
<g><path style="opacity:0.004" fill="#8d4956" d="M 881.5,264.5 C 882.833,265.167 882.833,265.833 881.5,266.5C 881.5,265.833 881.5,265.167 881.5,264.5 Z"/></g>
<g><path style="opacity:0.004" fill="#92505a" d="M 144.5,266.5 C 143.833,267.167 143.833,267.167 144.5,266.5 Z"/></g>
<g><path style="opacity:0.004" fill="#8f4b57" d="M 886.5,267.5 C 887.833,268.167 887.833,268.167 886.5,267.5 Z"/></g>
<g><path style="opacity:0.004" fill="#974e59" d="M 144.5,268.5 C 145.833,269.167 145.833,269.167 144.5,268.5 Z"/></g>
<g><path style="opacity:0.004" fill="#8d4853" d="M 886.5,272.5 C 886.167,272.5 885.833,272.5 885.5,272.5C 885.833,269.833 886.167,269.833 886.5,272.5 Z"/></g>
<g><path style="opacity:0.004" fill="#954e59" d="M 144.5,273.5 C 143.833,272.167 143.833,272.167 144.5,273.5 Z"/></g>
<g><path style="opacity:0.004" fill="#8f4b56" d="M 886.5,272.5 C 887.239,272.369 887.906,272.536 888.5,273C 887.563,273.692 886.897,273.525 886.5,272.5 Z"/></g>
<g><path style="opacity:0.012" fill="#8e505d" d="M 891.5,280.5 C 890.833,279.167 890.833,279.167 891.5,280.5 Z"/></g>
<g><path style="opacity:0.004" fill="#904c59" d="M 894.5,279.5 C 895.833,280.167 895.833,280.167 894.5,279.5 Z"/></g>
<g><path style="opacity:0.004" fill="#8f4e59" d="M 891.5,280.5 C 892.833,281.167 892.833,281.167 891.5,280.5 Z"/></g>
<g><path style="opacity:0.004" fill="#924d59" d="M 136.5,281.5 C 137.833,282.167 137.833,282.167 136.5,281.5 Z"/></g>
<g><path style="opacity:0.004" fill="#8d4a57" d="M 139.5,282.5 C 138.475,282.103 138.308,281.437 139,280.5C 139.464,281.094 139.631,281.761 139.5,282.5 Z"/></g>
<g><path style="opacity:0.012" fill="#8f4b56" d="M 893.5,284.5 C 894.833,285.167 894.833,285.167 893.5,284.5 Z"/></g>
<g><path style="opacity:0.997" fill="#7b182f" d="M 470.5,293.5 C 445.836,292.981 421.17,292.647 396.5,292.5C 411.817,291.346 433.817,291.179 462.5,292C 467.167,292.333 471.833,292.667 476.5,293C 474.527,293.495 472.527,293.662 470.5,293.5 Z"/></g>
<g><path style="opacity:0.999" fill="#010000" d="M 396.5,292.5 C 421.17,292.647 445.836,292.981 470.5,293.5C 580.551,299.513 685.218,326.513 784.5,374.5C 795.438,380.639 806.438,386.806 817.5,393C 820.665,395.335 823.665,397.835 826.5,400.5C 835.234,415.17 835.734,430.17 828,445.5C 816.791,461.014 801.958,466.181 783.5,461C 775.381,456.274 767.048,452.107 758.5,448.5C 736.22,435.696 712.887,425.03 688.5,416.5C 618.521,388.842 545.855,372.509 470.5,367.5C 434.493,364.907 398.493,364.907 362.5,367.5C 327.425,370.846 292.758,376.679 258.5,385C 236.25,385.719 222.917,375.219 218.5,353.5C 217.997,344.845 219.997,336.845 224.5,329.5C 229.13,323.044 235.13,318.211 242.5,315C 255.208,311.49 267.875,308.323 280.5,305.5C 293.135,303.283 305.802,301.283 318.5,299.5C 344.531,295.832 370.531,293.498 396.5,292.5 Z"/></g>
<g><path style="opacity:0.012" fill="#914c59" d="M 128.5,299.5 C 127.833,298.167 127.833,298.167 128.5,299.5 Z"/></g>
<g><path style="opacity:0.008" fill="#8f4b57" d="M 901.5,298.5 C 902.833,299.167 902.833,299.167 901.5,298.5 Z"/></g>
<g><path style="opacity:0.012" fill="#8d4d59" d="M 128.5,299.5 C 129.167,299.5 129.5,299.833 129.5,300.5C 129.167,300.167 128.833,299.833 128.5,299.5 Z"/></g>
<g><path style="opacity:1" fill="#77182d" d="M 318.5,299.5 C 305.802,301.283 293.135,303.283 280.5,305.5C 287.403,303.323 295.736,301.49 305.5,300C 308.84,299.547 312.174,299.047 315.5,298.5C 316.726,298.52 317.726,298.853 318.5,299.5 Z"/></g>
<g><path style="opacity:0.004" fill="#6e3c41" d="M 75.5,305.5 C 76.8333,306.167 76.8333,306.167 75.5,305.5 Z"/></g>
<g><path style="opacity:0.004" fill="#974e5c" d="M 122.5,306.5 C 123.833,307.167 123.833,307.167 122.5,306.5 Z"/></g>
<g><path style="opacity:0.004" fill="#95505b" d="M 120.5,308.5 C 121.833,309.167 121.833,309.167 120.5,308.5 Z"/></g>
<g><path style="opacity:0.008" fill="#8c4b50" d="M 910.5,313.5 C 911.833,314.167 911.833,314.167 910.5,313.5 Z"/></g>
<g><path style="opacity:0.004" fill="#944f5b" d="M 119.5,314.5 C 120.833,315.167 120.833,315.167 119.5,314.5 Z"/></g>
<g><path style="opacity:0.02" fill="#8f4958" d="M 909.5,314.5 C 909.833,314.5 910.167,314.5 910.5,314.5C 910.672,315.492 910.338,316.158 909.5,316.5C 909.5,315.833 909.5,315.167 909.5,314.5 Z"/></g>
<g><path style="opacity:0.004" fill="#914f58" d="M 107.5,317.5 C 108.833,318.167 108.833,318.167 107.5,317.5 Z"/></g>
<g><path style="opacity:0.004" fill="#904e57" d="M 918.5,319.5 C 919.833,320.167 919.833,320.167 918.5,319.5 Z"/></g>
<g><path style="opacity:0.012" fill="#93525c" d="M 111.5,327.5 C 112.833,328.167 112.833,328.167 111.5,327.5 Z"/></g>
<g><path style="opacity:0.004" fill="#914c54" d="M 916.5,328.5 C 915.833,327.167 915.833,327.167 916.5,328.5 Z"/></g>
<g><path style="opacity:0.008" fill="#904e5c" d="M 918.5,327.5 C 919.833,328.167 919.833,328.167 918.5,327.5 Z"/></g>
<g><path style="opacity:1" fill="#7e182f" d="M 224.5,329.5 C 219.997,336.845 217.997,344.845 218.5,353.5C 216.496,346.302 217.996,338.302 223,329.5C 223.69,328.262 224.19,328.262 224.5,329.5 Z"/></g>
<g><path style="opacity:0.008" fill="#904a5a" d="M 916.5,328.5 C 917.525,328.897 917.692,329.563 917,330.5C 916.536,329.906 916.369,329.239 916.5,328.5 Z"/></g>
<g><path style="opacity:0.016" fill="#934d5c" d="M 111.5,330.5 C 112.833,331.167 112.833,331.167 111.5,330.5 Z"/></g>
<g><path style="opacity:0.016" fill="#915059" d="M 918.5,334.5 C 919.833,335.167 919.833,335.167 918.5,334.5 Z"/></g>
<g><path style="opacity:0.004" fill="#92505b" d="M 923.5,344.5 C 924.833,345.167 924.833,345.167 923.5,344.5 Z"/></g>
<g><path style="opacity:0.012" fill="#9a515f" d="M 104.5,347.5 C 103.833,346.167 103.833,346.167 104.5,347.5 Z"/></g>
<g><path style="opacity:0.008" fill="#96505f" d="M 104.5,347.5 C 105.239,347.369 105.906,347.536 106.5,348C 105.563,348.692 104.897,348.525 104.5,347.5 Z"/></g>
<g><path style="opacity:0.016" fill="#93505c" d="M 924.5,348.5 C 925.833,349.167 925.833,349.167 924.5,348.5 Z"/></g>
<g><path style="opacity:0.008" fill="#94505d" d="M 926.5,351.5 C 925.833,350.167 925.833,350.167 926.5,351.5 Z"/></g>
<g><path style="opacity:0.004" fill="#904d5c" d="M 926.5,351.5 C 927.833,352.167 927.833,352.167 926.5,351.5 Z"/></g>
<g><path style="opacity:0.008" fill="#97545f" d="M 103.5,353.5 C 104.833,354.167 104.833,354.167 103.5,353.5 Z"/></g>
<g><path style="opacity:0.012" fill="#9a555e" d="M 95.5,363.5 C 95.8966,362.475 96.5632,362.308 97.5,363C 96.9056,363.464 96.2389,363.631 95.5,363.5 Z"/></g>
<g><path style="opacity:0.006" fill="#9a5662" d="M 97.5,365.5 C 97.8966,364.475 98.5632,364.308 99.5,365C 98.9056,365.464 98.2389,365.631 97.5,365.5 Z"/></g>
<g><path style="opacity:1" fill="#6b162a" d="M 470.5,367.5 C 434.498,367.537 398.498,367.537 362.5,367.5C 398.493,364.907 434.493,364.907 470.5,367.5 Z"/></g>
<g><path style="opacity:0.005" fill="#98535f" d="M 97.5,370.5 C 96.6365,371.463 95.9698,371.463 95.5,370.5C 95.5331,369.011 96.0331,367.678 97,366.5C 97.49,367.793 97.6567,369.127 97.5,370.5 Z"/></g>
<g><path style="opacity:0.004" fill="#96505b" d="M 98.5,367.5 C 99.8333,368.167 99.8333,368.167 98.5,367.5 Z"/></g>
<g><path style="opacity:0.004" fill="#984f5c" d="M 931.5,367.5 C 932.833,368.167 932.833,368.167 931.5,367.5 Z"/></g>
<g><path style="opacity:0.012" fill="#944f5a" d="M 934.5,367.5 C 935.833,368.167 935.833,368.167 934.5,367.5 Z"/></g>
<g><path style="opacity:0.224" fill="#a1626f" d="M 929.5,367.5 C 930.167,367.833 930.833,368.167 931.5,368.5C 931.167,369.167 930.833,369.833 930.5,370.5C 929.596,369.791 929.263,368.791 929.5,367.5 Z"/></g>
<g><path style="opacity:0.004" fill="#9a555f" d="M 97.5,370.5 C 98.8333,371.167 98.8333,371.167 97.5,370.5 Z"/></g>
<g><path style="opacity:0.008" fill="#97515e" d="M 98.5,373.5 C 97.7784,373.918 97.2784,374.584 97,375.5C 96.2506,374.365 96.4173,373.365 97.5,372.5C 98.1067,372.624 98.44,372.957 98.5,373.5 Z"/></g>
<g><path style="opacity:0.157" fill="#a46273" d="M 931.5,373.5 C 932.492,373.328 933.158,373.662 933.5,374.5C 932.662,374.842 932.328,375.508 932.5,376.5C 931.596,375.791 931.263,374.791 931.5,373.5 Z"/></g>
<g><path style="opacity:0.004" fill="#924b5d" d="M 933.5,374.5 C 934.833,375.167 934.833,375.167 933.5,374.5 Z"/></g>
<g><path style="opacity:0.008" fill="#97515f" d="M 95.5,376.5 C 96.525,376.897 96.6917,377.563 96,378.5C 95.5357,377.906 95.369,377.239 95.5,376.5 Z"/></g>
<g><path style="opacity:0.008" fill="#934e5d" d="M 934.5,377.5 C 935.833,378.167 935.833,378.167 934.5,377.5 Z"/></g>
<g><path style="opacity:0.004" fill="#9b555f" d="M 93.5,383.5 C 94.8333,384.167 94.8333,384.167 93.5,383.5 Z"/></g>
<g><path style="opacity:0.996" fill="#74172c" d="M 784.5,374.5 C 797.369,379.935 809.702,386.435 821.5,394C 823.79,395.777 825.457,397.944 826.5,400.5C 823.665,397.835 820.665,395.335 817.5,393C 806.438,386.806 795.438,380.639 784.5,374.5 Z"/></g>
<g><path style="opacity:0.008" fill="#96515c" d="M 942.5,391.5 C 943.833,392.167 943.833,392.167 942.5,391.5 Z"/></g>
<g><path style="opacity:0.004" fill="#96505b" d="M 938.5,392.5 C 939.833,393.167 939.833,393.167 938.5,392.5 Z"/></g>
<g><path style="opacity:0.014" fill="#9b5461" d="M 87.5,395.5 C 88.2891,395.783 88.9558,396.283 89.5,397C 88.184,397.528 87.5173,397.028 87.5,395.5 Z"/></g>
<g><path style="opacity:0.882" fill="#85404e" d="M 94.5,390.5 C 94.5905,393.152 93.9238,395.485 92.5,397.5C 92.4095,394.848 93.0762,392.515 94.5,390.5 Z"/></g>
<g><path style="opacity:0.01" fill="#974f5b" d="M 939.5,397.5 C 939.897,396.475 940.563,396.308 941.5,397C 940.906,397.464 940.239,397.631 939.5,397.5 Z"/></g>
<g><path style="opacity:0.2" fill="#a2616f" d="M 938.5,398.5 C 939.239,398.369 939.906,398.536 940.5,399C 939.748,399.671 939.414,400.504 939.5,401.5C 938.596,400.791 938.263,399.791 938.5,398.5 Z"/></g>
<g><path style="opacity:0.004" fill="#94505a" d="M 941.5,400.5 C 942.833,401.167 942.833,401.167 941.5,400.5 Z"/></g>
<g><path style="opacity:0.012" fill="#915059" d="M 941.5,405.5 C 942.833,406.167 942.833,406.167 941.5,405.5 Z"/></g>
<g><path style="opacity:0.009" fill="#924d59" d="M 88.5,410.5 C 87.4265,409.749 87.2599,408.749 88,407.5C 88.4828,408.448 88.6495,409.448 88.5,410.5 Z"/></g>
<g><path style="opacity:0.008" fill="#904f5b" d="M 942.5,408.5 C 943.833,409.167 943.833,409.167 942.5,408.5 Z"/></g>
<g><path style="opacity:0.004" fill="#98535d" d="M 86.5,419.5 C 85.8333,418.167 85.8333,418.167 86.5,419.5 Z"/></g>
<g><path style="opacity:1" fill="#77172d" d="M 688.5,416.5 C 712.887,425.03 736.22,435.696 758.5,448.5C 734.871,437.131 711.537,426.464 688.5,416.5 Z"/></g>
<g><path style="opacity:0.004" fill="#9d5863" d="M 81.5,426.5 C 82.8333,427.167 82.8333,427.167 81.5,426.5 Z"/></g>
<g><path style="opacity:0.004" fill="#94515a" d="M 945.5,426.5 C 946.833,427.167 946.833,427.167 945.5,426.5 Z"/></g>
<g><path style="opacity:0.004" fill="#9a5561" d="M 80.5,431.5 C 81.8333,432.167 81.8333,432.167 80.5,431.5 Z"/></g>
<g><path style="opacity:0.004" fill="#9c5761" d="M 82.5,431.5 C 83.8333,432.167 83.8333,432.167 82.5,431.5 Z"/></g>
<g><path style="opacity:0.004" fill="#934c59" d="M 946.5,431.5 C 947.833,432.167 947.833,432.167 946.5,431.5 Z"/></g>
<g><path style="opacity:0.999" fill="#020000" d="M 754.5,528.5 C 761.26,534.431 765.76,541.764 768,550.5C 768.499,554.486 768.666,558.486 768.5,562.5C 761.357,586.129 745.691,595.296 721.5,590C 584.087,507.709 437.087,483.709 280.5,518C 254.24,518.068 242.074,504.902 244,478.5C 246.021,469.763 250.521,462.763 257.5,457.5C 268.838,451.994 280.838,448.327 293.5,446.5C 435.32,420.894 571.32,439.061 701.5,501C 719.22,510.192 736.887,519.359 754.5,528.5 Z"/></g>
<g><path style="opacity:0.004" fill="#96505b" d="M 948.5,435.5 C 947.833,434.167 947.833,434.167 948.5,435.5 Z"/></g>
<g><path style="opacity:0.004" fill="#97505b" d="M 948.5,435.5 C 949.833,436.167 949.833,436.167 948.5,435.5 Z"/></g>
<g><path style="opacity:0.006" fill="#985460" d="M 83.5,437.5 C 82.7611,437.631 82.0944,437.464 81.5,437C 82.4368,436.308 83.1034,436.475 83.5,437.5 Z"/></g>
<g><path style="opacity:0.012" fill="#94515c" d="M 948.5,439.5 C 947.833,438.167 947.833,438.167 948.5,439.5 Z"/></g>
<g><path style="opacity:0.008" fill="#94505e" d="M 948.5,439.5 C 949.833,440.167 949.833,440.167 948.5,439.5 Z"/></g>
<g><path style="opacity:0.007" fill="#9a5561" d="M 79.5,440.5 C 80.5983,441.601 80.765,442.934 80,444.5C 79.51,443.207 79.3433,441.873 79.5,440.5 Z"/></g>
<g><path style="opacity:0.008" fill="#9a5561" d="M 81.5,439.5 C 82.5735,440.251 82.7401,441.251 82,442.5C 81.5172,441.552 81.3505,440.552 81.5,439.5 Z"/></g>
<g><path style="opacity:0.012" fill="#944e55" d="M 948.5,446.5 C 949.833,447.167 949.833,447.167 948.5,446.5 Z"/></g>
<g><path style="opacity:0.012" fill="#96545e" d="M 950.5,447.5 C 951.833,448.167 951.833,448.167 950.5,447.5 Z"/></g>
<g><path style="opacity:0.004" fill="#98515f" d="M 80.5,447.5 C 81.5735,448.251 81.7401,449.251 81,450.5C 80.5172,449.552 80.3505,448.552 80.5,447.5 Z"/></g>
<g><path style="opacity:1" fill="#73162b" d="M 293.5,446.5 C 280.838,448.327 268.838,451.994 257.5,457.5C 257.062,457.565 256.728,457.399 256.5,457C 260.609,453.612 265.275,451.279 270.5,450C 277.448,448.286 284.448,446.786 291.5,445.5C 292.416,445.543 293.083,445.876 293.5,446.5 Z"/></g>
<g><path style="opacity:0.004" fill="#954f5c" d="M 949.5,450.5 C 950.833,451.167 950.833,451.167 949.5,450.5 Z"/></g>
<g><path style="opacity:0.008" fill="#985360" d="M 79.5,451.5 C 80.8333,452.167 80.8333,452.167 79.5,451.5 Z"/></g>
<g><path style="opacity:0.004" fill="#9a5662" d="M 79.5,455.5 C 80.8333,456.167 80.8333,456.167 79.5,455.5 Z"/></g>
<g><path style="opacity:0.01" fill="#9a525f" d="M 79.5,457.5 C 80.525,457.897 80.6917,458.563 80,459.5C 79.5357,458.906 79.369,458.239 79.5,457.5 Z"/></g>
<g><path style="opacity:0.008" fill="#97525e" d="M 950.5,455.5 C 951.634,457.966 951.801,460.633 951,463.5C 950.503,460.854 950.336,458.187 950.5,455.5 Z"/></g>
<g><path style="opacity:0.008" fill="#94515a" d="M 79.5,461.5 C 80.8333,462.167 80.8333,462.167 79.5,461.5 Z"/></g>
<g><path style="opacity:0.004" fill="#934e59" d="M 950.5,464.5 C 951.833,465.167 951.833,465.167 950.5,464.5 Z"/></g>
<g><path style="opacity:0.729" fill="#935161" d="M 81.5,463.5 C 81.8168,467.702 81.4834,471.702 80.5,475.5C 80.0226,473.973 80.0226,472.139 80.5,470C 80.3708,468.019 79.7042,466.353 78.5,465C 79.5266,464.487 80.5266,463.987 81.5,463.5 Z"/></g>
<g><path style="opacity:1" fill="#430108" d="M 949.5,463.5 C 949.5,464.5 949.5,465.5 949.5,466.5C 949.666,471.844 949.499,477.177 949,482.5C 948.095,473.841 947.762,465.174 948,456.5C 948.186,459.036 948.686,461.369 949.5,463.5 Z"/></g>
<g><path style="opacity:0.004" fill="#9d5761" d="M 76.5,477.5 C 77.8333,478.167 77.8333,478.167 76.5,477.5 Z"/></g>
<g><path style="opacity:0.369" fill="#aa6a7b" d="M 950.5,476.5 C 951.174,491.902 951.841,507.402 952.5,523C 951.915,524.302 951.249,525.469 950.5,526.5C 950.5,512.167 950.5,497.833 950.5,483.5C 950.5,481.167 950.5,478.833 950.5,476.5 Z"/></g>
<g><path style="opacity:0.654" fill="#955062" d="M 80.5,476.5 C 80.5,492.5 80.5,508.5 80.5,524.5C 79.8191,516.765 79.1524,508.932 78.5,501C 78.9168,493.156 79.5834,484.99 80.5,476.5 Z"/></g>
<g><path style="opacity:0.137" fill="#a15e6f" d="M 80.5,527.5 C 81.4834,531.298 81.8168,535.298 81.5,539.5C 80.8045,535.769 80.1378,531.935 79.5,528C 79.7284,527.601 80.0618,527.435 80.5,527.5 Z"/></g>
<g><path style="opacity:0.027" fill="#ab6c7a" d="M 950.5,528.5 C 950.616,531.86 950.949,535.193 951.5,538.5C 950.833,538.167 950.167,537.833 949.5,537.5C 949.19,534.287 949.523,531.287 950.5,528.5 Z"/></g>
<g><path style="opacity:0.004" fill="#9c555e" d="M 951.5,538.5 C 952.833,539.167 952.833,539.167 951.5,538.5 Z"/></g>
<g><path style="opacity:0.012" fill="#95525d" d="M 79.5,541.5 C 80.8333,542.167 80.8333,542.167 79.5,541.5 Z"/></g>
<g><path style="opacity:1" fill="#73172c" d="M 754.5,528.5 C 764.707,534.908 769.707,544.241 769.5,556.5C 769.714,560.024 769.381,562.024 768.5,562.5C 768.666,558.486 768.499,554.486 768,550.5C 765.76,541.764 761.26,534.431 754.5,528.5 Z"/></g>
<g><path style="opacity:0.008" fill="#97505c" d="M 950.5,541.5 C 951.573,542.251 951.74,543.251 951,544.5C 950.517,543.552 950.351,542.552 950.5,541.5 Z"/></g>
<g><path style="opacity:0.008" fill="#9c5560" d="M 79.5,543.5 C 80.8333,544.167 80.8333,544.167 79.5,543.5 Z"/></g>
<g><path style="opacity:1" fill="#521019" d="M 950.5,483.5 C 950.5,497.833 950.5,512.167 950.5,526.5C 950.5,527.167 950.5,527.833 950.5,528.5C 949.523,531.287 949.19,534.287 949.5,537.5C 949.344,544.237 948.677,550.903 947.5,557.5C 946.71,558.609 946.21,559.942 946,561.5C 945.833,560.5 945.667,559.5 945.5,558.5C 948.372,533.424 950.038,508.424 950.5,483.5 Z"/></g>
<g><path style="opacity:0.012" fill="#9b525f" d="M 79.5,545.5 C 80.525,545.897 80.6917,546.563 80,547.5C 79.5357,546.906 79.369,546.239 79.5,545.5 Z"/></g>
<g><path style="opacity:0.008" fill="#995560" d="M 79.5,549.5 C 80.8333,550.167 80.8333,550.167 79.5,549.5 Z"/></g>
<g><path style="opacity:0.006" fill="#97515e" d="M 949.5,549.5 C 950.573,550.251 950.74,551.251 950,552.5C 949.517,551.552 949.351,550.552 949.5,549.5 Z"/></g>
<g><path style="opacity:0.004" fill="#98555d" d="M 79.5,551.5 C 80.8333,552.167 80.8333,552.167 79.5,551.5 Z"/></g>
<g><path style="opacity:0.008" fill="#9a5360" d="M 79.5,555.5 C 79.8966,554.475 80.5632,554.308 81.5,555C 80.9056,555.464 80.2389,555.631 79.5,555.5 Z"/></g>
<g><path style="opacity:0.016" fill="#975461" d="M 81.5,559.5 C 80.8333,558.167 80.8333,558.167 81.5,559.5 Z"/></g>
<g><path style="opacity:0.016" fill="#96515c" d="M 948.5,558.5 C 949.833,559.167 949.833,559.167 948.5,558.5 Z"/></g>
<g><path style="opacity:1" fill="#5a1921" d="M 91.5,603.5 C 91.7678,601.901 91.4345,600.568 90.5,599.5C 85.6401,579.816 82.6401,559.816 81.5,539.5C 81.8168,535.298 81.4834,531.298 80.5,527.5C 80.5,526.5 80.5,525.5 80.5,524.5C 80.5,508.5 80.5,492.5 80.5,476.5C 80.5,476.167 80.5,475.833 80.5,475.5C 81.4834,471.702 81.8168,467.702 81.5,463.5C 82.3195,460.695 82.8195,457.695 83,454.5C 79.1782,503.451 82.3449,551.951 92.5,600C 92.4857,601.385 92.1524,602.551 91.5,603.5 Z"/></g>
<g><path style="opacity:0.004" fill="#99535e" d="M 950.5,561.5 C 951.833,562.167 951.833,562.167 950.5,561.5 Z"/></g>
<g><path style="opacity:0.008" fill="#99515c" d="M 81.5,559.5 C 82.8333,561.167 82.8333,562.833 81.5,564.5C 81.1667,563.167 80.8333,563.167 80.5,564.5C 79.9569,564.44 79.6236,564.107 79.5,563.5C 80.8532,562.476 81.5198,561.143 81.5,559.5 Z"/></g>
<g><path style="opacity:0.004" fill="#97515a" d="M 948.5,562.5 C 949.833,563.167 949.833,563.167 948.5,562.5 Z"/></g>
<g><path style="opacity:0.016" fill="#99545e" d="M 80.5,564.5 C 80.8333,564.5 81.1667,564.5 81.5,564.5C 81.3147,565.17 80.9813,565.17 80.5,564.5 Z"/></g>
<g><path style="opacity:0.008" fill="#95505a" d="M 82.5,567.5 C 83.8333,568.167 83.8333,568.167 82.5,567.5 Z"/></g>
<g><path style="opacity:0.004" fill="#99515d" d="M 947.5,567.5 C 948.833,568.167 948.833,568.167 947.5,567.5 Z"/></g>
<g><path style="opacity:0.004" fill="#98545b" d="M 83.5,573.5 C 84.8333,574.167 84.8333,574.167 83.5,573.5 Z"/></g>
<g><path style="opacity:0.998" fill="#77172d" d="M 427.5,573.5 C 408.495,573.586 389.495,573.919 370.5,574.5C 369.127,574.657 367.793,574.49 366.5,574C 369.833,573.667 373.167,573.333 376.5,573C 400.188,572.167 417.188,572.333 427.5,573.5 Z"/></g>
<g><path style="opacity:0.999" fill="#020000" d="M 427.5,573.5 C 524.522,577.006 614.188,604.506 696.5,656C 708.276,668.594 709.443,682.094 700,696.5C 688.107,707.157 675.273,708.324 661.5,700C 593.069,657.248 518.402,634.082 437.5,630.5C 417.83,629.217 398.164,629.217 378.5,630.5C 346.436,633.154 314.602,637.487 283,643.5C 262.078,641.227 253.078,629.56 256,608.5C 258.704,599.461 264.537,593.294 273.5,590C 305.511,581.977 337.844,576.81 370.5,574.5C 389.495,573.919 408.495,573.586 427.5,573.5 Z"/></g>
<g><path style="opacity:0.004" fill="#96535c" d="M 946.5,575.5 C 947.833,576.167 947.833,576.167 946.5,575.5 Z"/></g>
<g><path style="opacity:0.008" fill="#9a525d" d="M 84.5,579.5 C 85.525,579.897 85.6917,580.563 85,581.5C 84.5357,580.906 84.369,580.239 84.5,579.5 Z"/></g>
<g><path style="opacity:0.041" fill="#9b596a" d="M 942.5,588.5 C 942.5,590.167 942.5,591.833 942.5,593.5C 941.566,594.568 941.232,595.901 941.5,597.5C 941.167,597.5 940.833,597.5 940.5,597.5C 940.42,594.219 941.087,591.219 942.5,588.5 Z"/></g>
<g><path style="opacity:0.02" fill="#94515d" d="M 942.5,593.5 C 943.833,594.833 943.833,596.167 942.5,597.5C 942.5,596.167 942.5,594.833 942.5,593.5 Z"/></g>
<g><path style="opacity:0.004" fill="#96515d" d="M 87.5,596.5 C 88.8333,597.167 88.8333,597.167 87.5,596.5 Z"/></g>
<g><path style="opacity:0.008" fill="#95525d" d="M 941.5,597.5 C 941.833,597.5 942.167,597.5 942.5,597.5C 942.167,600.167 941.833,600.167 941.5,597.5 Z"/></g>
<g><path style="opacity:0.004" fill="#99535a" d="M 88.5,600.5 C 87.8333,599.167 87.8333,599.167 88.5,600.5 Z"/></g>
<g><path style="opacity:0.004" fill="#964f5b" d="M 88.5,600.5 C 89.8333,601.167 89.8333,601.167 88.5,600.5 Z"/></g>
<g><path style="opacity:0.027" fill="#a25e6c" d="M 90.5,599.5 C 91.4345,600.568 91.7678,601.901 91.5,603.5C 90.6365,604.463 89.9698,604.463 89.5,603.5C 90.2458,602.264 90.5792,600.93 90.5,599.5 Z"/></g>
<g><path style="opacity:0.012" fill="#984f5d" d="M 87.5,605.5 C 88.8333,606.167 88.8333,606.167 87.5,605.5 Z"/></g>
<g><path style="opacity:0.008" fill="#995359" d="M 89.5,606.5 C 90.8333,607.167 90.8333,607.167 89.5,606.5 Z"/></g>
<g><path style="opacity:0.004" fill="#96525e" d="M 88.5,609.5 C 87.8333,608.167 87.8333,608.167 88.5,609.5 Z"/></g>
<g><path style="opacity:0.008" fill="#96505a" d="M 90.5,609.5 C 89.8333,608.167 89.8333,608.167 90.5,609.5 Z"/></g>
<g><path style="opacity:0.004" fill="#934d59" d="M 940.5,609.5 C 939.833,608.167 939.833,608.167 940.5,609.5 Z"/></g>
<g><path style="opacity:0.008" fill="#95515c" d="M 88.5,609.5 C 88.8333,609.5 89.1667,609.5 89.5,609.5C 89.3147,610.17 88.9813,610.17 88.5,609.5 Z"/></g>
<g><path style="opacity:0.004" fill="#954d57" d="M 90.5,609.5 C 91.8333,610.167 91.8333,610.167 90.5,609.5 Z"/></g>
<g><path style="opacity:0.004" fill="#945359" d="M 940.5,609.5 C 941.167,609.5 941.5,609.833 941.5,610.5C 941.167,610.167 940.833,609.833 940.5,609.5 Z"/></g>
<g><path style="opacity:0.008" fill="#945059" d="M 941.5,610.5 C 942.833,611.167 942.833,611.167 941.5,610.5 Z"/></g>
<g><path style="opacity:0.004" fill="#98515c" d="M 940.5,614.5 C 941.833,615.167 941.833,615.167 940.5,614.5 Z"/></g>
<g><path style="opacity:0.004" fill="#985059" d="M 92.5,616.5 C 93.8333,617.167 93.8333,617.167 92.5,616.5 Z"/></g>
<g><path style="opacity:0.016" fill="#964f5a" d="M 93.5,622.5 C 94.8333,623.167 94.8333,623.167 93.5,622.5 Z"/></g>
<g><path style="opacity:0.008" fill="#8f4c58" d="M 934.5,625.5 C 935.833,626.167 935.833,626.167 934.5,625.5 Z"/></g>
<g><path style="opacity:0.008" fill="#93505b" d="M 95.5,628.5 C 96.8333,629.167 96.8333,629.167 95.5,628.5 Z"/></g>
<g><path style="opacity:0.999" fill="#72162c" d="M 437.5,630.5 C 417.833,631.833 398.167,631.833 378.5,630.5C 398.164,629.217 417.83,629.217 437.5,630.5 Z"/></g>
<g><path style="opacity:0.008" fill="#934d59" d="M 97.5,630.5 C 97.2172,631.289 96.7172,631.956 96,632.5C 95.4719,631.184 95.9719,630.517 97.5,630.5 Z"/></g>
<g><path style="opacity:0.008" fill="#944e5c" d="M 95.5,633.5 C 96.8333,634.167 96.8333,634.167 95.5,633.5 Z"/></g>
<g><path style="opacity:0.004" fill="#924d55" d="M 98.5,635.5 C 97.8333,634.167 97.8333,634.167 98.5,635.5 Z"/></g>
<g><path style="opacity:0.016" fill="#944b59" d="M 96.5,636.5 C 97.8333,637.167 97.8333,637.167 96.5,636.5 Z"/></g>
<g><path style="opacity:0.008" fill="#944c5a" d="M 931.5,637.5 C 932.833,638.167 932.833,638.167 931.5,637.5 Z"/></g>
<g><path style="opacity:0.004" fill="#904a58" d="M 933.5,638.5 C 934.833,639.167 934.833,639.167 933.5,638.5 Z"/></g>
<g><path style="opacity:0.004" fill="#964f58" d="M 99.5,639.5 C 99.8333,639.5 100.167,639.5 100.5,639.5C 100.315,640.17 99.9813,640.17 99.5,639.5 Z"/></g>
<g><path style="opacity:0.008" fill="#934a57" d="M 928.5,644.5 C 929.833,645.167 929.833,645.167 928.5,644.5 Z"/></g>
<g><path style="opacity:0.008" fill="#8d4a58" d="M 926.5,650.5 C 927.833,651.167 927.833,651.167 926.5,650.5 Z"/></g>
<g><path style="opacity:0.012" fill="#8e4a56" d="M 103.5,652.5 C 104.833,653.167 104.833,653.167 103.5,652.5 Z"/></g>
<g><path style="opacity:0.016" fill="#914c58" d="M 105.5,656.5 C 104.833,655.167 104.833,655.167 105.5,656.5 Z"/></g>
<g><path style="opacity:0.004" fill="#934e58" d="M 104.5,656.5 C 103.833,657.167 103.833,657.167 104.5,656.5 Z"/></g>
<g><path style="opacity:0.012" fill="#904c59" d="M 105.5,656.5 C 105.833,656.5 106.167,656.5 106.5,656.5C 106.315,657.17 105.981,657.17 105.5,656.5 Z"/></g>
<g><path style="opacity:0.016" fill="#924d59" d="M 923.5,659.5 C 924.833,660.167 924.833,660.167 923.5,659.5 Z"/></g>
<g><path style="opacity:0.004" fill="#904b57" d="M 926.5,659.5 C 927.833,660.167 927.833,660.167 926.5,659.5 Z"/></g>
<g><path style="opacity:0.008" fill="#934b58" d="M 103.5,658.5 C 105.07,659.875 105.903,661.541 106,663.5C 104.117,662.347 103.284,660.681 103.5,658.5 Z"/></g>
<g><path style="opacity:0.012" fill="#934c5a" d="M 107.5,662.5 C 108.833,663.167 108.833,663.167 107.5,662.5 Z"/></g>
<g><path style="opacity:0.004" fill="#934a55" d="M 108.5,664.5 C 109.833,665.167 109.833,665.167 108.5,664.5 Z"/></g>
<g><path style="opacity:0.008" fill="#924a52" d="M 110.5,666.5 C 109.833,667.167 109.833,667.167 110.5,666.5 Z"/></g>
<g><path style="opacity:0.008" fill="#854251" d="M 918.5,670.5 C 919.833,671.167 919.833,671.167 918.5,670.5 Z"/></g>
<g><path style="opacity:0.008" fill="#904955" d="M 111.5,673.5 C 113.332,674.14 113.665,675.14 112.5,676.5C 111.614,675.675 111.281,674.675 111.5,673.5 Z"/></g>
<g><path style="opacity:0.004" fill="#8e4c58" d="M 916.5,676.5 C 917.833,677.167 917.833,677.167 916.5,676.5 Z"/></g>
<g><path style="opacity:0.012" fill="#914954" d="M 114.5,678.5 C 114.103,679.525 113.437,679.692 112.5,679C 113.094,678.536 113.761,678.369 114.5,678.5 Z"/></g>
<g><path style="opacity:0.012" fill="#924b57" d="M 115.5,681.5 C 116.833,682.167 116.833,682.167 115.5,681.5 Z"/></g>
<g><path style="opacity:0.004" fill="#914c53" d="M 112.5,684.5 C 113.833,685.167 113.833,685.167 112.5,684.5 Z"/></g>
<g><path style="opacity:0.004" fill="#924c53" d="M 117.5,686.5 C 118.833,687.167 118.833,687.167 117.5,686.5 Z"/></g>
<g><path style="opacity:0.035" fill="#8e4952" d="M 119.5,690.5 C 120.833,691.167 120.833,691.167 119.5,690.5 Z"/></g>
<g><path style="opacity:0.008" fill="#8e4854" d="M 122.5,692.5 C 122.483,694.028 121.816,694.528 120.5,694C 121.044,693.283 121.711,692.783 122.5,692.5 Z"/></g>
<g><path style="opacity:0.016" fill="#a15e6c" d="M 124.5,695.5 C 125.338,695.842 125.672,696.508 125.5,697.5C 124.352,698.895 123.352,698.728 122.5,697C 123.416,696.722 124.082,696.222 124.5,695.5 Z"/></g>
<g><path style="opacity:0.008" fill="#8e4b53" d="M 119.5,698.5 C 120.833,699.167 120.833,699.167 119.5,698.5 Z"/></g>
<g><path style="opacity:0.008" fill="#904b57" d="M 125.5,702.5 C 126.833,703.167 126.833,703.167 125.5,702.5 Z"/></g>
<g><path style="opacity:0.004" fill="#904d58" d="M 128.5,704.5 C 127.833,705.167 127.833,705.167 128.5,704.5 Z"/></g>
<g><path style="opacity:0.027" fill="#8b4b54" d="M 902.5,705.5 C 903.833,706.167 903.833,706.167 902.5,705.5 Z"/></g>
<g><path style="opacity:0.012" fill="#904753" d="M 129.5,706.5 C 129.328,707.492 129.662,708.158 130.5,708.5C 130.158,709.338 129.492,709.672 128.5,709.5C 128.263,708.209 128.596,707.209 129.5,706.5 Z"/></g>
<g><path style="opacity:0.008" fill="#8a4c56" d="M 901.5,707.5 C 902.833,708.167 902.833,708.167 901.5,707.5 Z"/></g>
<g><path style="opacity:0.004" fill="#8d4653" d="M 128.5,709.5 C 128.631,710.239 128.464,710.906 128,711.5C 127.308,710.563 127.475,709.897 128.5,709.5 Z"/></g>
<g><path style="opacity:0.008" fill="#924b55" d="M 129.5,710.5 C 130.833,711.167 130.833,711.167 129.5,710.5 Z"/></g>
<g><path style="opacity:0.008" fill="#8a4754" d="M 901.5,710.5 C 902.833,711.167 902.833,711.167 901.5,710.5 Z"/></g>
<g><path style="opacity:0.004" fill="#8c4854" d="M 131.5,717.5 C 132.833,718.167 132.833,718.167 131.5,717.5 Z"/></g>
<g><path style="opacity:0.004" fill="#8c474f" d="M 894.5,722.5 C 895.833,723.167 895.833,723.167 894.5,722.5 Z"/></g>
<g><path style="opacity:0.004" fill="#8c4554" d="M 136.5,723.5 C 137.833,724.167 137.833,724.167 136.5,723.5 Z"/></g>
<g><path style="opacity:0.004" fill="#8d4551" d="M 131.5,725.5 C 132.833,726.167 132.833,726.167 131.5,725.5 Z"/></g>
<g><path style="opacity:0.004" fill="#8a4351" d="M 135.5,725.5 C 136.833,726.167 136.833,726.167 135.5,725.5 Z"/></g>
<g><path style="opacity:0.008" fill="#8a4555" d="M 145.5,734.5 C 144.833,735.167 144.833,735.167 145.5,734.5 Z"/></g>
<g><path style="opacity:0.008" fill="#8e4854" d="M 144.5,735.5 C 144.631,736.239 144.464,736.906 144,737.5C 143.308,736.563 143.475,735.897 144.5,735.5 Z"/></g>
<g><path style="opacity:0.004" fill="#8a4852" d="M 884.5,736.5 C 885.833,737.167 885.833,737.167 884.5,736.5 Z"/></g>
<g><path style="opacity:0.004" fill="#8c4553" d="M 144.5,738.5 C 145.525,738.897 145.692,739.563 145,740.5C 144.536,739.906 144.369,739.239 144.5,738.5 Z"/></g>
<g><path style="opacity:0.012" fill="#8a4251" d="M 148.5,738.5 C 147.833,739.167 147.833,739.167 148.5,738.5 Z"/></g>
<g><path style="opacity:0.008" fill="#87444f" d="M 149.5,740.5 C 148.833,741.167 148.833,741.167 149.5,740.5 Z"/></g>
<g><path style="opacity:0.004" fill="#894554" d="M 143.5,742.5 C 144.833,743.167 144.833,743.167 143.5,742.5 Z"/></g>
<g><path style="opacity:0.016" fill="#8b4950" d="M 150.5,742.5 C 149.833,743.167 149.833,743.167 150.5,742.5 Z"/></g>
<g><path style="opacity:0.024" fill="#8c4050" d="M 152.5,745.5 C 152.5,746.167 152.5,746.833 152.5,747.5C 151.167,746.833 151.167,746.167 152.5,745.5 Z"/></g>
<g><path style="opacity:0.016" fill="#8d4253" d="M 152.5,747.5 C 153.833,748.167 153.833,748.167 152.5,747.5 Z"/></g>
<g><path style="opacity:0.004" fill="#874252" d="M 878.5,749.5 C 879.833,750.167 879.833,750.167 878.5,749.5 Z"/></g>
<g><path style="opacity:0.008" fill="#8d4250" d="M 155.5,749.5 C 155.631,750.239 155.464,750.906 155,751.5C 154.308,750.563 154.475,749.897 155.5,749.5 Z"/></g>
<g><path style="opacity:0.004" fill="#8b4859" d="M 870.5,756.5 C 871.833,757.167 871.833,757.167 870.5,756.5 Z"/></g>
<g><path style="opacity:0.004" fill="#884552" d="M 161.5,758.5 C 160.833,759.167 160.833,759.167 161.5,758.5 Z"/></g>
<g><path style="opacity:0.004" fill="#8c444e" d="M 161.5,762.5 C 162.833,763.167 162.833,763.167 161.5,762.5 Z"/></g>
<g><path style="opacity:0.012" fill="#8c4253" d="M 161.5,764.5 C 162.833,765.167 162.833,765.167 161.5,764.5 Z"/></g>
<g><path style="opacity:0.004" fill="#8f4450" d="M 164.5,764.5 C 165.833,765.167 165.833,765.167 164.5,764.5 Z"/></g>
<g><path style="opacity:0.004" fill="#8a434e" d="M 161.5,765.5 C 160.833,766.167 160.833,766.167 161.5,765.5 Z"/></g>
<g><path style="opacity:0.004" fill="#6a373d" d="M 899.5,765.5 C 900.833,766.167 900.833,766.167 899.5,765.5 Z"/></g>
<g><path style="opacity:0.008" fill="#884350" d="M 167.5,768.5 C 168.833,769.167 168.833,769.167 167.5,768.5 Z"/></g>
<g><path style="opacity:0.024" fill="#89424e" d="M 171.5,771.5 C 170.833,772.167 170.833,772.167 171.5,771.5 Z"/></g>
<g><path style="opacity:0.016" fill="#823e4d" d="M 167.5,772.5 C 168.833,773.167 168.833,773.167 167.5,772.5 Z"/></g>
<g><path style="opacity:0.012" fill="#873e4d" d="M 170.5,772.5 C 170.5,773.167 170.5,773.833 170.5,774.5C 169.167,773.833 169.167,773.167 170.5,772.5 Z"/></g>
<g><path style="opacity:0.008" fill="#873f4c" d="M 171.5,773.5 C 172.833,774.167 172.833,774.167 171.5,773.5 Z"/></g>
<g><path style="opacity:0.012" fill="#873f4b" d="M 170.5,774.5 C 170.833,774.5 171.167,774.5 171.5,774.5C 171.315,775.17 170.981,775.17 170.5,774.5 Z"/></g>
<g><path style="opacity:0.012" fill="#88434e" d="M 860.5,774.5 C 861.833,775.167 861.833,775.167 860.5,774.5 Z"/></g>
<g><path style="opacity:0.008" fill="#89424e" d="M 175.5,778.5 C 176.833,779.167 176.833,779.167 175.5,778.5 Z"/></g>
<g><path style="opacity:0.008" fill="#87414f" d="M 176.5,781.5 C 175.833,780.167 175.833,780.167 176.5,781.5 Z"/></g>
<g><path style="opacity:0.004" fill="#89404d" d="M 178.5,780.5 C 178.655,783.853 177.988,784.186 176.5,781.5C 177.167,781.167 177.833,780.833 178.5,780.5 Z"/></g>
<g><path style="opacity:0.01" fill="#89414e" d="M 186.5,789.5 C 186.483,791.028 185.816,791.528 184.5,791C 185.044,790.283 185.711,789.783 186.5,789.5 Z"/></g>
<g><path style="opacity:0.004" fill="#874250" d="M 838.5,796.5 C 839.833,797.167 839.833,797.167 838.5,796.5 Z"/></g>
<g><path style="opacity:0.012" fill="#894250" d="M 193.5,797.5 C 193.631,798.239 193.464,798.906 193,799.5C 192.308,798.563 192.475,797.897 193.5,797.5 Z"/></g>
<g><path style="opacity:0.004" fill="#874350" d="M 835.5,798.5 C 836.833,799.167 836.833,799.167 835.5,798.5 Z"/></g>
<g><path style="opacity:0.02" fill="#844350" d="M 200.5,806.5 C 201.833,807.167 201.833,807.167 200.5,806.5 Z"/></g>
<g><path style="opacity:0.004" fill="#88404c" d="M 200.5,812.5 C 201.833,813.167 201.833,813.167 200.5,812.5 Z"/></g>
<g><path style="opacity:0.012" fill="#884350" d="M 820.5,814.5 C 821.833,815.167 821.833,815.167 820.5,814.5 Z"/></g>
<g><path style="opacity:0.012" fill="#854250" d="M 217.5,821.5 C 217.483,823.028 216.816,823.528 215.5,823C 216.044,822.283 216.711,821.783 217.5,821.5 Z"/></g>
<g><path style="opacity:0.004" fill="#853d4d" d="M 223.5,831.5 C 223.897,830.475 224.563,830.308 225.5,831C 224.906,831.464 224.239,831.631 223.5,831.5 Z"/></g>
<g><path style="opacity:0.008" fill="#844048" d="M 227.5,830.5 C 226.833,831.167 226.833,831.167 227.5,830.5 Z"/></g>
<g><path style="opacity:0.01" fill="#89404e" d="M 231.5,836.5 C 233.76,837.238 233.927,838.238 232,839.5C 231.517,838.552 231.351,837.552 231.5,836.5 Z"/></g>
<g><path style="opacity:0.016" fill="#843f4b" d="M 236.5,838.5 C 235.833,839.167 235.833,839.167 236.5,838.5 Z"/></g>
<g><path style="opacity:0.008" fill="#88424f" d="M 796.5,838.5 C 797.833,839.167 797.833,839.167 796.5,838.5 Z"/></g>
<g><path style="opacity:0.012" fill="#894851" d="M 788.5,843.5 C 789.833,844.167 789.833,844.167 788.5,843.5 Z"/></g>
<g><path style="opacity:0.008" fill="#8b4350" d="M 786.5,845.5 C 787.833,846.167 787.833,846.167 786.5,845.5 Z"/></g>
<g><path style="opacity:0.008" fill="#87424d" d="M 239.5,846.5 C 240.833,847.167 240.833,847.167 239.5,846.5 Z"/></g>
<g><path style="opacity:0.051" fill="#87434f" d="M 245.5,846.5 C 245.833,846.5 246.167,846.5 246.5,846.5C 246.315,847.17 245.981,847.17 245.5,846.5 Z"/></g>
<g><path style="opacity:0.016" fill="#89414f" d="M 248.5,848.5 C 247.833,849.167 247.833,849.167 248.5,848.5 Z"/></g>
<g><path style="opacity:0.008" fill="#86424d" d="M 782.5,852.5 C 783.833,853.167 783.833,853.167 782.5,852.5 Z"/></g>
<g><path style="opacity:0.008" fill="#853e4c" d="M 247.5,854.5 C 248.833,855.167 248.833,855.167 247.5,854.5 Z"/></g>
<g><path style="opacity:0.02" fill="#873c4d" d="M 252.5,854.5 C 253.833,855.167 253.833,855.167 252.5,854.5 Z"/></g>
<g><path style="opacity:0.004" fill="#89414e" d="M 254.5,854.5 C 255.833,855.167 255.833,855.167 254.5,854.5 Z"/></g>
<g><path style="opacity:0.016" fill="#884251" d="M 265.5,862.5 C 266.833,863.167 266.833,863.167 265.5,862.5 Z"/></g>
<g><path style="opacity:0.004" fill="#87414c" d="M 773.5,862.5 C 774.833,863.167 774.833,863.167 773.5,862.5 Z"/></g>
<g><path style="opacity:0.012" fill="#873f4e" d="M 273.5,869.5 C 273.897,868.475 274.563,868.308 275.5,869C 274.906,869.464 274.239,869.631 273.5,869.5 Z"/></g>
<g><path style="opacity:0.016" fill="#853e4d" d="M 271.5,870.5 C 272.833,871.167 272.833,871.167 271.5,870.5 Z"/></g>
<g><path style="opacity:0.02" fill="#8b424f" d="M 751.5,870.5 C 752.833,871.167 752.833,871.167 751.5,870.5 Z"/></g>
<g><path style="opacity:0.004" fill="#8b404e" d="M 756.5,870.5 C 757.833,871.167 757.833,871.167 756.5,870.5 Z"/></g>
<g><path style="opacity:0.004" fill="#8a4451" d="M 279.5,872.5 C 280.833,873.167 280.833,873.167 279.5,872.5 Z"/></g>
<g><path style="opacity:0.008" fill="#88414d" d="M 287.5,875.5 C 287.5,875.833 287.5,876.167 287.5,876.5C 286.83,876.019 286.83,875.685 287.5,875.5 Z"/></g>
<g><path style="opacity:0.012" fill="#883f4c" d="M 287.5,876.5 C 288.833,877.167 288.833,877.167 287.5,876.5 Z"/></g>
<g><path style="opacity:0.016" fill="#8c424e" d="M 740.5,877.5 C 741.167,877.5 741.5,877.833 741.5,878.5C 741.167,878.167 740.833,877.833 740.5,877.5 Z"/></g>
<g><path style="opacity:0.008" fill="#8a4650" d="M 287.5,878.5 C 288.833,879.167 288.833,879.167 287.5,878.5 Z"/></g>
<g><path style="opacity:0.016" fill="#853f4d" d="M 292.5,878.5 C 291.833,879.167 291.833,879.167 292.5,878.5 Z"/></g>
<g><path style="opacity:0.004" fill="#874450" d="M 741.5,878.5 C 742.833,879.167 742.833,879.167 741.5,878.5 Z"/></g>
<g><path style="opacity:0.016" fill="#8c4250" d="M 295.5,881.5 C 296.833,882.167 296.833,882.167 295.5,881.5 Z"/></g>
<g><path style="opacity:0.008" fill="#89474f" d="M 730.5,883.5 C 731.833,884.167 731.833,884.167 730.5,883.5 Z"/></g>
<g><path style="opacity:0.012" fill="#894553" d="M 730.5,884.5 C 730.5,884.833 730.5,885.167 730.5,885.5C 729.83,885.019 729.83,884.685 730.5,884.5 Z"/></g>
<g><path style="opacity:0.004" fill="#200d11" d="M 881.5,884.5 C 882.833,885.167 882.833,885.167 881.5,884.5 Z"/></g>
<g><path style="opacity:0.004" fill="#6a303b" d="M 251.5,885.5 C 252.833,886.167 252.833,886.167 251.5,885.5 Z"/></g>
<g><path style="opacity:0.012" fill="#893e4d" d="M 297.5,884.5 C 298.525,884.897 298.692,885.563 298,886.5C 297.536,885.906 297.369,885.239 297.5,884.5 Z"/></g>
<g><path style="opacity:0.004" fill="#8d4451" d="M 727.5,885.5 C 728.833,886.167 728.833,886.167 727.5,885.5 Z"/></g>
<g><path style="opacity:0.008" fill="#8c424f" d="M 730.5,885.5 C 731.239,885.369 731.906,885.536 732.5,886C 731.563,886.692 730.897,886.525 730.5,885.5 Z"/></g>
<g><path style="opacity:0.004" fill="#84404b" d="M 304.5,886.5 C 305.833,887.167 305.833,887.167 304.5,886.5 Z"/></g>
<g><path style="opacity:0.004" fill="#8c414d" d="M 311.5,889.5 C 310.833,890.167 310.833,890.167 311.5,889.5 Z"/></g>
<g><path style="opacity:0.004" fill="#000000" d="M -0.5,890.5 C 0.833333,891.167 0.833333,891.167 -0.5,890.5 Z"/></g>
<g><path style="opacity:0.004" fill="#904654" d="M 717.5,891.5 C 718.833,892.167 718.833,892.167 717.5,891.5 Z"/></g>
<g><path style="opacity:0.008" fill="#8b4152" d="M 716.5,892.5 C 716.833,892.5 717.167,892.5 717.5,892.5C 717.315,893.17 716.981,893.17 716.5,892.5 Z"/></g>
<g><path style="opacity:0.012" fill="#8c444e" d="M 315.5,894.5 C 314.833,893.167 314.833,893.167 315.5,894.5 Z"/></g>
<g><path style="opacity:0.004" fill="#883e4c" d="M 712.5,893.5 C 713.833,894.167 713.833,894.167 712.5,893.5 Z"/></g>
<g><path style="opacity:0.01" fill="#883f4d" d="M 315.5,894.5 C 316.239,894.369 316.906,894.536 317.5,895C 316.563,895.692 315.897,895.525 315.5,894.5 Z"/></g>
<g><path style="opacity:0.004" fill="#814049" d="M 320.5,894.5 C 319.833,895.167 319.833,895.167 320.5,894.5 Z"/></g>
<g><path style="opacity:0.004" fill="#8c4150" d="M 710.5,894.5 C 711.167,894.5 711.833,894.5 712.5,894.5C 711.833,895.833 711.167,895.833 710.5,894.5 Z"/></g>
<g><path style="opacity:0.004" fill="#8e4451" d="M 708.5,896.5 C 709.833,897.167 709.833,897.167 708.5,896.5 Z"/></g>
<g><path style="opacity:0.012" fill="#87414e" d="M 327.5,898.5 C 328.833,899.167 328.833,899.167 327.5,898.5 Z"/></g>
<g><path style="opacity:0.004" fill="#8e4350" d="M 703.5,898.5 C 704.833,899.167 704.833,899.167 703.5,898.5 Z"/></g>
<g><path style="opacity:0.004" fill="#853e4a" d="M 321.5,900.5 C 322.833,901.167 322.833,901.167 321.5,900.5 Z"/></g>
<g><path style="opacity:0.008" fill="#8c3d4c" d="M 328.5,900.5 C 329.833,901.167 329.833,901.167 328.5,900.5 Z"/></g>
<g><path style="opacity:0.004" fill="#8d4551" d="M 699.5,900.5 C 700.833,901.167 700.833,901.167 699.5,900.5 Z"/></g>
<g><path style="opacity:0.008" fill="#8a424f" d="M 333.5,901.5 C 334.833,902.167 334.833,902.167 333.5,901.5 Z"/></g>
<g><path style="opacity:0.004" fill="#8a4351" d="M 696.5,901.5 C 697.833,902.167 697.833,902.167 696.5,901.5 Z"/></g>
<g><path style="opacity:0.004" fill="#0a0102" d="M 923.5,901.5 C 924.833,902.167 924.833,902.167 923.5,901.5 Z"/></g>
<g><path style="opacity:0.004" fill="#834150" d="M 337.5,902.5 C 337.103,903.525 336.437,903.692 335.5,903C 336.094,902.536 336.761,902.369 337.5,902.5 Z"/></g>
<g><path style="opacity:0.008" fill="#8c4450" d="M 692.5,904.5 C 693.833,905.167 693.833,905.167 692.5,904.5 Z"/></g>
<g><path style="opacity:0.004" fill="#8b434e" d="M 686.5,906.5 C 687.833,907.167 687.833,907.167 686.5,906.5 Z"/></g>
<g><path style="opacity:0.008" fill="#8f4351" d="M 345.5,908.5 C 345.897,907.475 346.563,907.308 347.5,908C 346.906,908.464 346.239,908.631 345.5,908.5 Z"/></g>
<g><path style="opacity:0.02" fill="#8a4251" d="M 683.5,907.5 C 684.833,908.167 684.833,908.167 683.5,907.5 Z"/></g>
<g><path style="opacity:0.008" fill="#8c4453" d="M 683.5,908.5 C 682.833,909.167 682.833,909.167 683.5,908.5 Z"/></g>
<g><path style="opacity:0.004" fill="#88404c" d="M 686.5,908.5 C 687.833,909.167 687.833,909.167 686.5,908.5 Z"/></g>
<g><path style="opacity:0.004" fill="#884050" d="M 351.5,910.5 C 352.833,911.167 352.833,911.167 351.5,910.5 Z"/></g>
<g><path style="opacity:0.004" fill="#8e4450" d="M 354.5,910.5 C 355.833,911.167 355.833,911.167 354.5,910.5 Z"/></g>
<g><path style="opacity:0.004" fill="#8f4655" d="M 678.5,910.5 C 679.833,911.167 679.833,911.167 678.5,910.5 Z"/></g>
<g><path style="opacity:0.012" fill="#8d474f" d="M 680.5,910.5 C 681.833,911.167 681.833,911.167 680.5,910.5 Z"/></g>
<g><path style="opacity:0.008" fill="#86414f" d="M 686.5,910.5 C 687.833,911.167 687.833,911.167 686.5,910.5 Z"/></g>
<g><path style="opacity:0.004" fill="#8f4753" d="M 670.5,913.5 C 671.525,913.897 671.692,914.563 671,915.5C 670.536,914.906 670.369,914.239 670.5,913.5 Z"/></g>
<g><path style="opacity:0.008" fill="#8a4350" d="M 369.5,916.5 C 368.833,915.167 368.833,915.167 369.5,916.5 Z"/></g>
<g><path style="opacity:0.004" fill="#8c4654" d="M 664.5,915.5 C 665.833,916.167 665.833,916.167 664.5,915.5 Z"/></g>
<g><path style="opacity:0.024" fill="#8a424e" d="M 369.5,916.5 C 370.833,917.167 370.833,917.167 369.5,916.5 Z"/></g>
<g><path style="opacity:0.008" fill="#8d434f" d="M 371.5,917.5 C 372.833,918.167 372.833,918.167 371.5,917.5 Z"/></g>
<g><path style="opacity:0.004" fill="#8b4250" d="M 367.5,917.5 C 368.525,917.897 368.692,918.563 368,919.5C 367.536,918.906 367.369,918.239 367.5,917.5 Z"/></g>
<g><path style="opacity:0.004" fill="#85404c" d="M 378.5,918.5 C 378.103,919.525 377.437,919.692 376.5,919C 377.094,918.536 377.761,918.369 378.5,918.5 Z"/></g>
<g><path style="opacity:0.012" fill="#894051" d="M 654.5,918.5 C 655.239,918.369 655.906,918.536 656.5,919C 655.563,919.692 654.897,919.525 654.5,918.5 Z"/></g>
<g><path style="opacity:0.004" fill="#0c0203" d="M 894.5,919.5 C 895.833,920.167 895.833,920.167 894.5,919.5 Z"/></g>
<g><path style="opacity:0.009" fill="#914754" d="M 383.5,921.5 C 386.001,921.511 386.168,922.178 384,923.5C 383.536,922.906 383.369,922.239 383.5,921.5 Z"/></g>
<g><path style="opacity:0.004" fill="#8f4551" d="M 643.5,922.5 C 644.833,923.167 644.833,923.167 643.5,922.5 Z"/></g>
<g><path style="opacity:0.004" fill="#904653" d="M 645.5,923.5 C 645.897,922.475 646.563,922.308 647.5,923C 646.906,923.464 646.239,923.631 645.5,923.5 Z"/></g>
<g><path style="opacity:0.012" fill="#914853" d="M 392.5,923.5 C 393.833,924.167 393.833,924.167 392.5,923.5 Z"/></g>
<g><path style="opacity:0.012" fill="#8f4653" d="M 395.5,925.5 C 394.833,924.167 394.833,924.167 395.5,925.5 Z"/></g>
<g><path style="opacity:0.008" fill="#8c474f" d="M 636.5,924.5 C 637.833,925.167 637.833,925.167 636.5,924.5 Z"/></g>
<g><path style="opacity:0.016" fill="#8c4650" d="M 395.5,925.5 C 396.167,925.5 396.5,925.833 396.5,926.5C 396.167,926.167 395.833,925.833 395.5,925.5 Z"/></g>
<g><path style="opacity:0.004" fill="#8c444f" d="M 644.5,925.5 C 645.833,926.167 645.833,926.167 644.5,925.5 Z"/></g>
<g><path style="opacity:0.004" fill="#090102" d="M 899.5,925.5 C 900.833,926.167 900.833,926.167 899.5,925.5 Z"/></g>
<g><path style="opacity:0.004" fill="#8c4352" d="M 392.5,926.5 C 393.833,927.167 393.833,927.167 392.5,926.5 Z"/></g>
<g><path style="opacity:0.012" fill="#8f4350" d="M 396.5,926.5 C 397.833,927.167 397.833,927.167 396.5,926.5 Z"/></g>
<g><path style="opacity:0.006" fill="#904554" d="M 404.5,926.5 C 403.054,927.613 401.387,927.78 399.5,927C 401.134,926.506 402.801,926.34 404.5,926.5 Z"/></g>
<g><path style="opacity:0.992" fill="#894250" d="M 408.5,926.5 C 411.228,926.171 413.562,926.837 415.5,928.5C 412.933,928.279 410.599,927.612 408.5,926.5 Z"/></g>
<g><path style="opacity:0.004" fill="#904a58" d="M 629.5,926.5 C 630.833,927.167 630.833,927.167 629.5,926.5 Z"/></g>
<g><path style="opacity:0.008" fill="#8e4554" d="M 637.5,926.5 C 638.833,927.167 638.833,927.167 637.5,926.5 Z"/></g>
<g><path style="opacity:0.004" fill="#1f0c10" d="M 198.5,928.5 C 199.833,929.167 199.833,929.167 198.5,928.5 Z"/></g>
<g><path style="opacity:0.008" fill="#8f4553" d="M 622.5,928.5 C 623.573,929.251 623.74,930.251 623,931.5C 622.517,930.552 622.351,929.552 622.5,928.5 Z"/></g>
<g><path style="opacity:0.004" fill="#924956" d="M 416.5,930.5 C 417.833,931.167 417.833,931.167 416.5,930.5 Z"/></g>
<g><path style="opacity:0.012" fill="#934757" d="M 419.5,931.5 C 418.833,930.167 418.833,930.167 419.5,931.5 Z"/></g>
<g><path style="opacity:0.012" fill="#914955" d="M 419.5,931.5 C 420.833,932.167 420.833,932.167 419.5,931.5 Z"/></g>
<g><path style="opacity:0.004" fill="#8d444e" d="M 426.5,931.5 C 426.5,931.833 426.5,932.167 426.5,932.5C 425.83,932.019 425.83,931.685 426.5,931.5 Z"/></g>
<g><path style="opacity:0.059" fill="#934b5b" d="M 426.5,931.5 C 426.5,931.167 426.5,930.833 426.5,930.5C 429.495,930.294 432.162,930.96 434.5,932.5C 433.209,932.263 432.209,932.596 431.5,933.5C 430.18,932.058 428.514,931.392 426.5,931.5 Z"/></g>
<g><path style="opacity:0.012" fill="#914552" d="M 612.5,930.5 C 615.001,930.511 615.168,931.178 613,932.5C 612.536,931.906 612.369,931.239 612.5,930.5 Z"/></g>
<g><path style="opacity:0.008" fill="#924656" d="M 426.5,932.5 C 427.833,933.167 427.833,933.167 426.5,932.5 Z"/></g>
<g><path style="opacity:0.133" fill="#9d5768" d="M 435.5,932.5 C 437.099,932.232 438.432,932.566 439.5,933.5C 438.209,933.263 437.209,933.596 436.5,934.5C 435.662,934.158 435.328,933.492 435.5,932.5 Z"/></g>
<g><path style="opacity:0.004" fill="#914853" d="M 607.5,932.5 C 608.833,933.167 608.833,933.167 607.5,932.5 Z"/></g>
<g><path style="opacity:0.004" fill="#934856" d="M 419.5,933.5 C 420.833,934.167 420.833,934.167 419.5,933.5 Z"/></g>
<g><path style="opacity:0.008" fill="#924854" d="M 421.5,933.5 C 422.833,934.167 422.833,934.167 421.5,933.5 Z"/></g>
<g><path style="opacity:0.365" fill="#944f61" d="M 592.5,933.5 C 588.764,934.989 584.764,935.656 580.5,935.5C 584.267,934.205 588.267,933.539 592.5,933.5 Z"/></g>
<g><path style="opacity:0.004" fill="#904956" d="M 600.5,933.5 C 601.833,934.167 601.833,934.167 600.5,933.5 Z"/></g>
<g><path style="opacity:0.016" fill="#914957" d="M 431.5,933.5 C 432.289,933.783 432.956,934.283 433.5,935C 432.184,935.528 431.517,935.028 431.5,933.5 Z"/></g>
<g><path style="opacity:0.016" fill="#934456" d="M 436.5,934.5 C 437.239,934.369 437.906,934.536 438.5,935C 437.563,935.692 436.897,935.525 436.5,934.5 Z"/></g>
<g><path style="opacity:0.978" fill="#5a111a" d="M 497.5,938.5 C 488.156,938.401 478.823,938.068 469.5,937.5C 465.766,937.677 462.099,937.344 458.5,936.5C 457.391,935.71 456.058,935.21 454.5,935C 455.833,934.833 457.167,934.667 458.5,934.5C 471.663,935.713 484.663,937.046 497.5,938.5 Z"/></g>
<g><path style="opacity:0.004" fill="#8e4353" d="M 595.5,935.5 C 595.897,934.475 596.563,934.308 597.5,935C 596.906,935.464 596.239,935.631 595.5,935.5 Z"/></g>
<g><path style="opacity:0.976" fill="#5f1621" d="M 566.5,937.5 C 556.917,939.025 547.25,939.691 537.5,939.5C 524.167,939.5 510.833,939.5 497.5,939.5C 497.5,939.167 497.5,938.833 497.5,938.5C 518.053,938.593 538.553,937.593 559,935.5C 563.5,935.667 568,935.833 572.5,936C 570.292,936.191 568.292,936.691 566.5,937.5 Z"/></g>
<g><path style="opacity:0.855" fill="#863e4c" d="M 469.5,937.5 C 478.823,938.068 488.156,938.401 497.5,938.5C 497.5,938.833 497.5,939.167 497.5,939.5C 496.85,939.804 496.183,940.137 495.5,940.5C 486.68,939.762 478.014,938.762 469.5,937.5 Z"/></g>
<g><path style="opacity:0.004" fill="#934a58" d="M 455.5,938.5 C 456.833,939.167 456.833,939.167 455.5,938.5 Z"/></g>
<g><path style="opacity:0.004" fill="#924a54" d="M 464.5,938.5 C 465.833,939.167 465.833,939.167 464.5,938.5 Z"/></g>
<g><path style="opacity:0.008" fill="#924b56" d="M 568.5,938.5 C 569.833,939.167 569.833,939.167 568.5,938.5 Z"/></g>
<g><path style="opacity:0.012" fill="#944857" d="M 472.5,939.5 C 473.833,940.167 473.833,940.167 472.5,939.5 Z"/></g>
<g><path style="opacity:0.004" fill="#934a55" d="M 475.5,940.5 C 475.897,939.475 476.563,939.308 477.5,940C 476.906,940.464 476.239,940.631 475.5,940.5 Z"/></g>
<g><path style="opacity:0.133" fill="#aa6272" d="M 497.5,939.5 C 510.833,939.5 524.167,939.5 537.5,939.5C 537.631,940.239 537.464,940.906 537,941.5C 523.735,940.842 510.569,940.175 497.5,939.5 Z"/></g>
<g><path style="opacity:0.004" fill="#8f4854" d="M 458.5,940.5 C 459.833,941.167 459.833,941.167 458.5,940.5 Z"/></g>
<g><path style="opacity:0.009" fill="#944755" d="M 486.5,941.5 C 487.077,940.227 487.743,940.227 488.5,941.5C 488.03,942.463 487.363,942.463 486.5,941.5 Z"/></g>
<g><path style="opacity:0.008" fill="#924755" d="M 489.5,940.5 C 490.525,940.897 490.692,941.563 490,942.5C 489.536,941.906 489.369,941.239 489.5,940.5 Z"/></g>
<g><path style="opacity:0.004" fill="#914652" d="M 492.5,940.5 C 493.833,941.167 493.833,941.167 492.5,940.5 Z"/></g>
<g><path style="opacity:0.012" fill="#964a58" d="M 544.5,941.5 C 544.897,940.475 545.563,940.308 546.5,941C 545.906,941.464 545.239,941.631 544.5,941.5 Z"/></g>
<g><path style="opacity:0.008" fill="#954b59" d="M 499.5,941.5 C 500.833,942.167 500.833,942.167 499.5,941.5 Z"/></g>
<g><path style="opacity:0.012" fill="#954b58" d="M 504.5,942.5 C 505.601,941.402 506.934,941.235 508.5,942C 507.207,942.49 505.873,942.657 504.5,942.5 Z"/></g>
<g><path style="opacity:0.008" fill="#954a57" d="M 512.5,942.5 C 511.833,941.167 511.833,941.167 512.5,942.5 Z"/></g>
<g><path style="opacity:0.008" fill="#924756" d="M 514.5,941.5 C 517.797,941.329 518.131,941.995 515.5,943.5C 514.702,943.043 514.369,942.376 514.5,941.5 Z"/></g>
<g><path style="opacity:0.016" fill="#954856" d="M 519.5,942.5 C 519.897,941.475 520.563,941.308 521.5,942C 520.906,942.464 520.239,942.631 519.5,942.5 Z"/></g>
<g><path style="opacity:0.012" fill="#954a55" d="M 523.5,941.5 C 524.833,942.167 524.833,942.167 523.5,941.5 Z"/></g>
<g><path style="opacity:0.004" fill="#944b58" d="M 527.5,941.5 C 528.833,942.167 528.833,942.167 527.5,941.5 Z"/></g>
<g><path style="opacity:0.008" fill="#964a57" d="M 531.5,941.5 C 532.833,942.167 532.833,942.167 531.5,941.5 Z"/></g>
<g><path style="opacity:0.012" fill="#944857" d="M 538.5,942.5 C 540.154,939.863 540.654,940.197 540,943.5C 539.617,942.944 539.117,942.611 538.5,942.5 Z"/></g>
<g><path style="opacity:0.004" fill="#8f4855" d="M 477.5,942.5 C 478.833,943.167 478.833,943.167 477.5,942.5 Z"/></g>
<g><path style="opacity:0.008" fill="#934855" d="M 492.5,942.5 C 493.833,943.167 493.833,943.167 492.5,942.5 Z"/></g>
<g><path style="opacity:0.008" fill="#924858" d="M 512.5,942.5 C 513.833,943.167 513.833,943.167 512.5,942.5 Z"/></g>
<g><path style="opacity:0.004" fill="#954a57" d="M 529.5,942.5 C 530.833,943.167 530.833,943.167 529.5,942.5 Z"/></g>
<g><path style="opacity:0.008" fill="#934a58" d="M 538.5,942.5 C 537.833,943.167 537.833,943.167 538.5,942.5 Z"/></g>
<g><path style="opacity:0.004" fill="#000000" d="M 67.5,953.5 C 68.8333,954.167 68.8333,954.167 67.5,953.5 Z"/></g>
<g><path style="opacity:0.004" fill="#632e37" d="M 643.5,965.5 C 644.833,966.167 644.833,966.167 643.5,965.5 Z"/></g>
<g><path style="opacity:0.004" fill="#5c2e32" d="M 467.5,1005.5 C 468.833,1006.17 468.833,1006.17 467.5,1005.5 Z"/></g>
</svg>
